<svg width="435" height="679" viewBox="0 0 435 679" fill="none" xmlns="http://www.w3.org/2000/svg">
<path d="M209.5 678.5C283.506 678.5 343.5 668.874 343.5 657C343.5 645.126 283.506 635.5 209.5 635.5C135.494 635.5 75.5 645.126 75.5 657C75.5 668.874 135.494 678.5 209.5 678.5Z" fill="#F2F2F2"/>
<path d="M220 666C294.006 666 354 656.374 354 644.5C354 632.626 294.006 623 220 623C145.994 623 86 632.626 86 644.5C86 656.374 145.994 666 220 666Z" stroke="#3F3D56" stroke-miterlimit="10"/>
<path d="M411.66 27.5H54.3402C41.7259 27.5 31.5 37.7259 31.5 50.3402V244.66C31.5 257.274 41.7259 267.5 54.3402 267.5H411.66C424.274 267.5 434.5 257.274 434.5 244.66V50.3402C434.5 37.7259 424.274 27.5 411.66 27.5Z" fill="#6C63FF"/>
<path d="M380.66 0.5H23.3402C10.7259 0.5 0.5 10.7259 0.5 23.3402V217.66C0.5 230.274 10.7259 240.5 23.3402 240.5H380.66C393.274 240.5 403.5 230.274 403.5 217.66V23.3402C403.5 10.7259 393.274 0.5 380.66 0.5Z" stroke="#3F3D56" stroke-miterlimit="10"/>
<path d="M64.8807 455.457C60.618 455.698 56.5066 457.122 53.0076 459.568C49.5086 462.015 46.7602 465.387 45.0707 469.308C40.1172 481.282 46.4952 495.347 56.0697 504.079C65.6442 512.81 77.9433 517.801 89.118 524.361C104.128 533.172 117.615 545.404 125.125 561.105C132.635 576.806 133.434 596.255 124.606 611.255C116.412 625.177 101.513 633.51 87.3038 641.194" stroke="#3F3D56" stroke-miterlimit="10"/>
<path d="M77.5 465C87.165 465 95 461.194 95 456.5C95 451.806 87.165 448 77.5 448C67.835 448 60 451.806 60 456.5C60 461.194 67.835 465 77.5 465Z" fill="#6C63FF"/>
<path d="M91.5 521C101.165 521 109 517.194 109 512.5C109 507.806 101.165 504 91.5 504C81.835 504 74 507.806 74 512.5C74 517.194 81.835 521 91.5 521Z" fill="#6C63FF"/>
<path d="M59.5 530C69.165 530 77 526.194 77 521.5C77 516.806 69.165 513 59.5 513C49.835 513 42 516.806 42 521.5C42 526.194 49.835 530 59.5 530Z" fill="#6C63FF"/>
<path d="M109.5 577C119.165 577 127 573.194 127 568.5C127 563.806 119.165 560 109.5 560C99.835 560 92 563.806 92 568.5C92 573.194 99.835 577 109.5 577Z" fill="#6C63FF"/>
<path d="M144.5 577C154.165 577 162 573.194 162 568.5C162 563.806 154.165 560 144.5 560C134.835 560 127 563.806 127 568.5C127 573.194 134.835 577 144.5 577Z" fill="#6C63FF"/>
<path d="M298 271.5C298 271.5 300 286.5 295 292.5C290 298.5 282 338.5 282 338.5V362.5C282 362.5 313 317.5 319 299.5C325 281.5 319 267.5 319 267.5L298 271.5Z" fill="#FFC1C7"/>
<path d="M295 197.5L295.423 197.975C300.587 203.783 304.639 210.49 307.379 217.762C313.944 235.195 328.055 278.167 323 282.5C316 288.5 296 292.5 295 291.5C294 290.5 274 228.5 274 228.5L295 197.5Z" fill="#3F3D56"/>
<path d="M262.5 622.5C262.5 622.5 286.5 627.5 287.5 622.5C288.14 619.392 289.147 616.37 290.5 613.5C290.5 613.5 312.253 614.406 306.574 633.477C306.004 635.356 304.761 636.959 303.082 637.979C297.902 641.149 285.699 648.626 279.5 652.5C274.841 655.412 268.146 653.236 263.368 650.911C261.655 650.072 260.269 648.689 259.426 646.978C258.583 645.267 258.331 643.325 258.709 641.456L262.5 622.5Z" fill="#3F3D56"/>
<path d="M193.5 625.5C193.5 625.5 169.5 630.5 168.5 625.5C167.86 622.392 166.853 619.37 165.5 616.5C165.5 616.5 143.789 617.405 149.41 636.422C149.988 638.337 151.254 639.971 152.965 641.008C158.173 644.195 170.32 651.638 176.5 655.5C181.602 658.689 189.145 655.776 193.94 653.248C195.272 652.552 196.343 651.445 196.993 650.09C197.643 648.735 197.837 647.206 197.546 645.732L193.5 625.5Z" fill="#3F3D56"/>
<path d="M163.5 284.5C163.5 284.5 161.5 299.5 166.5 305.5C171.5 311.5 179.5 334.5 179.5 334.5V358.5C179.5 358.5 148.5 330.5 142.5 312.5C136.5 294.5 142.5 280.5 142.5 280.5L163.5 284.5Z" fill="#FFC1C7"/>
<path d="M233.5 161.5C247.307 161.5 258.5 150.307 258.5 136.5C258.5 122.693 247.307 111.5 233.5 111.5C219.693 111.5 208.5 122.693 208.5 136.5C208.5 150.307 219.693 161.5 233.5 161.5Z" fill="#FFC1C7"/>
<path d="M253.5 146.5C253.5 146.5 246.5 178.5 253.5 182.5C260.5 186.5 211.5 182.5 211.5 182.5C211.5 182.5 222.5 155.5 217.5 146.5C212.5 137.5 253.5 146.5 253.5 146.5Z" fill="#FFC1C7"/>
<path d="M277.5 359.5C277.5 359.5 286.5 372.5 283.5 412.5C280.5 452.5 277.5 494.5 277.5 494.5C277.5 494.5 299.5 620.5 292.5 623.5C285.5 626.5 262.5 629.5 259.5 626.5C256.5 623.5 242.5 506.5 242.5 506.5L229.5 410.5L209.5 520.5C209.5 520.5 198.5 627.5 190.5 632.5C184.781 636.074 173.441 633.516 167.439 631.767C166.313 631.443 165.329 630.751 164.644 629.801C163.959 628.851 163.614 627.698 163.664 626.527C164.397 609.701 167.688 543.294 175.5 502.5C184.5 455.5 166.5 361.5 182.5 359.5C198.5 357.5 277.5 359.5 277.5 359.5Z" fill="#2F2E41"/>
<path d="M207.5 178.5C207.5 178.5 211.5 160.5 226.5 162.5C241.5 164.5 251.5 163.5 254.5 173.5C257.5 183.5 289.5 191.5 289.5 191.5C289.5 191.5 297.5 192.5 296.5 205.5C295.5 218.5 275.5 266.5 275.5 266.5C275.5 266.5 276.5 306.5 281.5 324.5C286.5 342.5 286.5 364.5 275.5 369.5C264.5 374.5 195.5 392.5 179.5 370.5C179.5 370.5 170.5 338.5 176.5 325.5C182.5 312.5 175.5 261.5 175.5 261.5L156.5 219.5C156.5 219.5 162.5 199.5 179.5 193.5C189.561 189.996 199.009 184.934 207.5 178.5V178.5Z" fill="#3F3D56"/>
<path d="M164.5 210.5L156.5 219.5C156.5 219.5 132.5 278.5 139.5 284.5C146.5 290.5 166.5 294.5 167.5 293.5C168.5 292.5 185.5 241.5 185.5 241.5L164.5 210.5Z" fill="#3F3D56"/>
<path d="M262.5 121.5C262.5 121.5 258.5 124.5 257.5 131.5C256.5 138.5 250.359 127.511 248.93 142.006C247.5 156.5 223.5 166.5 214.5 159.5C205.5 152.5 190.5 108.5 211.5 101.5C232.5 94.5 253.5 95.5 257.5 102.5C261.5 109.5 262.5 121.5 262.5 121.5Z" fill="#2F2E41"/>
<path opacity="0.1" d="M242.93 142.006C244.359 127.511 250.5 138.5 251.5 131.5C252.5 124.5 256.5 121.5 256.5 121.5C256.5 121.5 255.5 109.5 251.5 102.5C249.586 99.1508 243.775 97.1795 235.94 96.7964C246.75 96.3012 255.124 98.3421 257.5 102.5C261.5 109.5 262.5 121.5 262.5 121.5C262.5 121.5 258.5 124.5 257.5 131.5C256.5 138.5 250.359 127.511 248.93 142.006C247.718 154.294 230.287 163.347 219.523 161.554C229.781 160.145 241.925 152.19 242.93 142.006Z" fill="black"/>
</svg>
