<svg width="405" height="747" viewBox="0 0 405 747" fill="none" xmlns="http://www.w3.org/2000/svg">
<g opacity="0.9">
<path opacity="0.9" d="M301.9 189.78H297.62C296.355 189.78 295.33 190.805 295.33 192.07V260.51C295.33 261.775 296.355 262.8 297.62 262.8H301.9C303.165 262.8 304.19 261.775 304.19 260.51V192.07C304.19 190.805 303.165 189.78 301.9 189.78Z" fill="#3A3768"/>
<path opacity="0.9" d="M3.57001 132.58H3.17999C1.91526 132.58 0.890015 133.605 0.890015 134.87V154.33C0.890015 155.595 1.91526 156.62 3.17999 156.62H3.57001C4.83474 156.62 5.85999 155.595 5.85999 154.33V134.87C5.85999 133.605 4.83474 132.58 3.57001 132.58Z" fill="#3A3768"/>
<path opacity="0.9" d="M4.01999 176.59H3C1.73527 176.59 0.709991 177.615 0.709991 178.88V216.14C0.709991 217.405 1.73527 218.43 3 218.43H4.01999C5.28472 218.43 6.31 217.405 6.31 216.14V178.88C6.31 177.615 5.28472 176.59 4.01999 176.59Z" fill="#3A3768"/>
<path opacity="0.9" d="M3.84 233.07H3.09C1.82526 233.07 0.799988 234.095 0.799988 235.36V272.98C0.799988 274.245 1.82526 275.27 3.09 275.27H3.84C5.10473 275.27 6.13 274.245 6.13 272.98V235.36C6.13 234.095 5.10473 233.07 3.84 233.07Z" fill="#3A3768"/>
<path opacity="0.9" d="M261.12 53.1399H42.7C21.1664 53.1399 3.70999 70.5963 3.70999 92.1299V616.54C3.70999 638.073 21.1664 655.53 42.7 655.53H261.12C282.654 655.53 300.11 638.073 300.11 616.54V92.1299C300.11 70.5963 282.654 53.1399 261.12 53.1399Z" fill="#3A3768"/>
<path opacity="0.9" d="M160.83 71.1199H127.18C125.043 71.1199 123.31 72.8525 123.31 74.9899V75.6499C123.31 77.7872 125.043 79.5199 127.18 79.5199H160.83C162.967 79.5199 164.7 77.7872 164.7 75.6499V74.9899C164.7 72.8525 162.967 71.1199 160.83 71.1199Z" fill="#E6E8EC"/>
<path opacity="0.9" d="M175.73 80.0998C178.364 80.0998 180.5 77.9642 180.5 75.3298C180.5 72.6954 178.364 70.5598 175.73 70.5598C173.096 70.5598 170.96 72.6954 170.96 75.3298C170.96 77.9642 173.096 80.0998 175.73 80.0998Z" fill="#E6E8EC"/>
</g>
<path opacity="0.1" d="M269.68 746.97C321.418 746.97 363.36 742.694 363.36 737.42C363.36 732.146 321.418 727.87 269.68 727.87C217.942 727.87 176 732.146 176 737.42C176 742.694 217.942 746.97 269.68 746.97Z" fill="#6C63FF"/>
<path d="M258.23 68.8201H224.33V72.9101C224.33 78.05 222.288 82.9793 218.654 86.6138C215.019 90.2483 210.09 92.2901 204.95 92.2901H96.77C91.6301 92.2901 86.7007 90.2483 83.0663 86.6138C79.4318 82.9793 77.39 78.05 77.39 72.9101V68.8201H45.55C42.4592 68.8201 39.3986 69.429 36.5432 70.6121C33.6877 71.7953 31.0934 73.5294 28.9083 75.7154C26.7232 77.9014 24.9902 80.4965 23.8083 83.3525C22.6264 86.2084 22.0187 89.2692 22.02 92.3601V616.29C22.0187 619.381 22.6264 622.442 23.8083 625.298C24.9902 628.154 26.7232 630.749 28.9083 632.935C31.0934 635.121 33.6877 636.855 36.5432 638.038C39.3986 639.221 42.4592 639.83 45.55 639.83H258.23C264.473 639.83 270.461 637.35 274.875 632.935C279.29 628.521 281.77 622.533 281.77 616.29V92.3601C281.77 86.1169 279.29 80.1294 274.875 75.7148C270.461 71.3002 264.473 68.8201 258.23 68.8201V68.8201Z" fill="#6E68CE"/>
<path d="M402.72 26.71C402.72 26.71 318.52 21.63 328.45 80.63C328.45 80.63 326.45 91.06 335.93 95.79C335.93 95.79 336.08 91.42 344.56 92.9C347.582 93.4108 350.653 93.5586 353.71 93.34C357.843 93.0641 361.772 91.4453 364.9 88.73V88.73C364.9 88.73 388.56 78.95 397.77 40.27C397.77 40.27 404.58 31.83 404.31 29.66L390.1 35.73C390.1 35.73 394.95 45.98 391.1 54.5C391.1 54.5 390.64 36.1 387.91 36.5C387.35 36.58 380.52 40.05 380.52 40.05C380.52 40.05 388.88 57.9 382.52 70.88C382.52 70.88 384.91 48.88 377.86 41.34L367.86 47.18C367.86 47.18 377.62 65.62 371.01 80.67C371.01 80.67 372.7 57.59 365.76 48.6L356.7 55.67C356.7 55.67 365.87 73.84 360.28 86.32C360.28 86.32 359.54 59.46 354.73 57.43C354.73 57.43 346.8 64.43 345.59 67.29C345.59 67.29 351.87 80.49 347.98 87.45C347.98 87.45 345.59 69.55 343.63 69.45C343.63 69.45 335.73 81.31 334.91 89.45C334.91 89.45 335.25 77.36 341.71 68.33C341.71 68.33 334.08 69.64 329.62 74.59C329.62 74.59 330.85 66.21 343.62 65.47C343.62 65.47 350.15 56.47 351.9 55.93C351.9 55.93 339.15 54.86 331.42 58.29C331.42 58.29 338.22 50.38 354.24 53.98L363.18 46.67C363.18 46.67 346.4 44.38 339.28 46.91C339.28 46.91 347.48 39.91 365.6 45.01L375.34 39.19C375.34 39.19 361.03 36.1 352.5 37.19C352.5 37.19 361.5 32.34 378.19 37.6L385.19 34.47C385.19 34.47 374.7 32.41 371.63 32.08C368.56 31.75 368.4 30.91 368.4 30.91C375.091 29.7984 381.96 30.5812 388.23 33.17C388.23 33.17 402.97 27.64 402.72 26.71Z" fill="#6C63FF"/>
<path d="M316.36 0.470119C316.36 0.470119 278.36 -1.81988 282.8 24.8401C282.8 24.8401 281.91 29.5501 286.18 31.6901C286.18 31.6901 286.25 29.6901 290.08 30.3801C291.444 30.6097 292.83 30.6768 294.21 30.5801C296.078 30.4546 297.854 29.7245 299.27 28.5001V28.5001C299.27 28.5001 309.96 24.0801 314.12 6.60012C314.12 6.60012 317.2 2.79012 317.12 1.81012L310.7 4.55012C310.7 4.55012 312.89 9.18012 311.16 13.0301C311.16 13.0301 310.96 4.72012 309.72 4.91012C309.47 4.91012 306.39 6.52012 306.39 6.52012C306.39 6.52012 310.16 14.5801 307.31 20.4501C307.31 20.4501 308.39 10.5101 305.21 7.10012L300.69 9.74012C300.69 9.74012 305.1 18.0701 302.11 24.8701C302.11 24.8701 302.88 14.4401 299.74 10.3801L295.64 13.5801C295.64 13.5801 299.79 21.7901 297.26 27.4301C297.26 27.4301 296.93 15.2901 294.76 14.3701C294.76 14.3701 291.17 17.5301 290.63 18.8301C290.63 18.8301 293.46 24.8301 291.7 27.9401C291.7 27.9401 290.62 19.8501 289.7 19.8101C289.7 19.8101 286.13 25.1701 285.76 28.8101C285.933 25.4166 286.991 22.1276 288.83 19.2701C286.772 19.6594 284.874 20.6433 283.37 22.1001C283.37 22.1001 283.92 18.3101 289.71 17.9801C289.71 17.9801 292.66 13.9101 293.45 13.6601C293.45 13.6601 287.69 13.1801 284.2 14.7301C284.2 14.7301 287.27 11.1601 294.51 12.7301L298.51 9.43012C298.51 9.43012 290.93 8.43012 287.71 9.54012C287.71 9.54012 291.42 6.38012 299.6 8.68012L304 6.05012C304 6.05012 297.54 4.66012 293.69 5.16012C293.69 5.16012 297.75 2.97012 305.29 5.34012L308.44 3.93012C308.44 3.93012 303.71 3.00012 302.32 2.85012C300.93 2.70012 300.86 2.32012 300.86 2.32012C303.859 1.82103 306.937 2.16731 309.75 3.32012C309.75 3.32012 316.47 0.890119 316.36 0.470119Z" fill="#6C63FF"/>
<path opacity="0.3" d="M249.56 428.87H171.53V506.9H249.56V428.87Z" fill="#3A3768"/>
<path opacity="0.3" d="M134.56 325.87H56.53V403.9H134.56V325.87Z" fill="#3A3768"/>
<path opacity="0.3" d="M142.06 530.11H64.03V608.14H142.06V530.11Z" fill="#3A3768"/>
<path d="M124.65 134.28H46.62V212.31H124.65V134.28Z" fill="white"/>
<path d="M233.913 400.74L176.053 453.094L228.406 510.954L286.266 458.6L233.913 400.74Z" fill="white"/>
<path d="M248.27 228.31H170.24V306.34H248.27V228.31Z" fill="white"/>
<path d="M149.63 315.31H71.6V393.34H149.63V315.31Z" fill="white"/>
<path d="M232.78 253.27C231.12 254.002 229.361 254.484 227.56 254.7C229.452 253.569 230.872 251.794 231.56 249.7C229.773 250.76 227.818 251.507 225.78 251.91C224.536 250.572 222.918 249.641 221.137 249.237C219.356 248.833 217.494 248.976 215.796 249.647C214.097 250.317 212.64 251.485 211.615 252.996C210.59 254.508 210.044 256.294 210.05 258.12C210.045 258.82 210.122 259.518 210.28 260.2C206.662 260.02 203.124 259.08 199.894 257.439C196.665 255.799 193.818 253.496 191.54 250.68C190.378 252.686 190.024 255.059 190.547 257.317C191.071 259.575 192.434 261.55 194.36 262.84C192.911 262.804 191.493 262.412 190.23 261.7V261.81C190.23 263.912 190.956 265.95 192.287 267.577C193.617 269.205 195.47 270.322 197.53 270.74C196.747 270.949 195.94 271.057 195.13 271.06C194.556 271.059 193.983 271.002 193.42 270.89C194.004 272.696 195.136 274.276 196.66 275.409C198.183 276.541 200.022 277.171 201.92 277.21C198.698 279.742 194.718 281.116 190.62 281.11C189.895 281.107 189.17 281.063 188.45 280.98C192.593 283.671 197.43 285.099 202.37 285.09C219.12 285.09 228.27 271.22 228.27 259.18C228.27 258.787 228.27 258.397 228.27 258.01C230.043 256.711 231.571 255.106 232.78 253.27V253.27Z" fill="#6C63FF"/>
<path d="M199.73 449.06L202.73 456.59L222.32 477.36L228.88 471.18L233.01 475.55L237.38 471.42L237.63 462.93L243.09 457.77L243.53 442.9L226 424.32L199.73 449.06ZM239.23 444.9L238.98 453.4L232.42 459.58L232.17 468.08L228.05 463.71L222.58 468.87L205.01 450.28L225.78 430.69L239.23 444.9Z" fill="#6C63FF"/>
<path d="M223.28 441.18L226.56 438.09L234.88 446.9L231.6 449.98L223.28 441.18ZM215.63 448.4L218.91 445.3L227.22 454.12L223.94 457.21L215.63 448.4Z" fill="#6C63FF"/>
<path d="M117.71 338.98C119.7 338.985 121.607 339.778 123.015 341.185C124.422 342.593 125.215 344.5 125.22 346.49V361.49C125.215 363.48 124.422 365.387 123.015 366.795C121.607 368.202 119.7 368.995 117.71 369H102.71C100.719 368.996 98.8101 368.206 97.4 366.8C96.6981 366.106 96.1413 365.278 95.7619 364.367C95.3825 363.455 95.1881 362.477 95.19 361.49V346.49C95.1953 344.498 95.9896 342.589 97.399 341.182C98.8084 339.774 100.718 338.983 102.71 338.98H117.71ZM117.71 335.98H102.71C99.9223 335.988 97.2512 337.099 95.28 339.07C93.3088 341.041 92.1979 343.712 92.19 346.5V361.5C92.1979 364.288 93.3088 366.959 95.28 368.93C97.2512 370.901 99.9223 372.012 102.71 372.02H117.71C120.491 372.012 123.156 370.907 125.126 368.944C127.096 366.982 128.212 364.321 128.23 361.54V346.54C128.23 343.746 127.123 341.066 125.151 339.087C123.179 337.108 120.504 335.991 117.71 335.98V335.98Z" fill="#6C63FF"/>
<path d="M119.96 346.51C119.512 346.512 119.074 346.381 118.701 346.133C118.327 345.886 118.036 345.533 117.864 345.119C117.692 344.706 117.646 344.251 117.733 343.812C117.82 343.372 118.035 342.969 118.352 342.652C118.669 342.335 119.072 342.12 119.512 342.033C119.951 341.946 120.406 341.992 120.819 342.164C121.233 342.336 121.586 342.627 121.833 343.001C122.081 343.374 122.212 343.812 122.21 344.26C122.211 344.556 122.154 344.849 122.041 345.123C121.929 345.396 121.763 345.645 121.554 345.854C121.345 346.063 121.096 346.229 120.823 346.341C120.549 346.454 120.256 346.511 119.96 346.51V346.51ZM110.23 347.98C111.417 347.98 112.577 348.332 113.563 348.991C114.55 349.65 115.319 350.588 115.773 351.684C116.227 352.78 116.346 353.987 116.115 355.151C115.883 356.314 115.312 357.384 114.473 358.223C113.634 359.062 112.564 359.633 111.401 359.865C110.237 360.096 109.03 359.977 107.934 359.523C106.838 359.069 105.9 358.3 105.241 357.313C104.582 356.327 104.23 355.167 104.23 353.98C104.23 352.389 104.862 350.863 105.987 349.737C107.113 348.612 108.639 347.98 110.23 347.98ZM110.23 344.98C108.45 344.98 106.71 345.508 105.23 346.497C103.75 347.486 102.596 348.891 101.915 350.536C101.234 352.18 101.056 353.99 101.403 355.736C101.75 357.482 102.607 359.085 103.866 360.344C105.125 361.603 106.728 362.46 108.474 362.807C110.22 363.154 112.03 362.976 113.674 362.295C115.319 361.614 116.724 360.46 117.713 358.98C118.702 357.5 119.23 355.76 119.23 353.98C119.23 351.593 118.282 349.304 116.594 347.616C114.906 345.928 112.617 344.98 110.23 344.98V344.98Z" fill="#6C63FF"/>
<path d="M85.23 151.98C80.3756 151.936 75.6561 153.576 71.8744 156.62C68.0927 159.664 65.4823 163.924 64.4875 168.676C63.4926 173.427 64.1747 178.377 66.4176 182.682C68.6606 186.987 72.3259 190.382 76.79 192.29C76.7003 190.671 76.8213 189.048 77.15 187.46C77.56 185.75 79.86 175.99 79.86 175.99C79.3989 174.945 79.167 173.813 79.18 172.67C79.18 169.55 80.99 167.22 83.24 167.22C85.16 167.22 86.08 168.66 86.08 170.38C86.08 172.3 84.85 175.18 84.22 177.84C84.0938 178.334 84.0856 178.851 84.196 179.348C84.3063 179.846 84.5323 180.311 84.8554 180.705C85.1786 181.099 85.59 181.412 86.0564 181.618C86.5227 181.824 87.0309 181.917 87.54 181.89C91.54 181.89 94.21 176.77 94.21 170.7C94.21 166.09 91.1 162.65 85.46 162.65C84.1109 162.601 82.7659 162.826 81.5061 163.311C80.2463 163.797 79.0978 164.532 78.1297 165.473C77.1617 166.414 76.3942 167.541 75.8735 168.786C75.3528 170.032 75.0897 171.37 75.1 172.72C75.0343 174.221 75.5298 175.694 76.49 176.85C76.6607 176.986 76.7825 177.173 76.8366 177.385C76.8908 177.596 76.8744 177.819 76.79 178.02C76.69 178.41 76.46 179.34 76.36 179.71C76.3416 179.824 76.2962 179.933 76.2276 180.026C76.1591 180.119 76.0693 180.195 75.9658 180.247C75.8622 180.298 75.7479 180.325 75.6321 180.324C75.5163 180.322 75.4025 180.294 75.3 180.24C72.36 179.04 70.99 175.82 70.99 172.24C70.99 166.24 75.99 159.1 85.99 159.1C93.99 159.1 99.31 164.91 99.31 171.15C99.31 179.4 94.72 185.57 87.95 185.57C86.9438 185.599 85.9465 185.374 85.05 184.916C84.1535 184.458 83.3867 183.782 82.82 182.95C82.82 182.95 81.59 187.79 81.33 188.73C80.8473 190.327 80.1366 191.846 79.22 193.24C81.1688 193.811 83.1892 194.101 85.22 194.1C90.8055 194.101 96.1627 191.884 100.113 187.935C104.064 183.987 106.284 178.63 106.285 173.045C106.286 167.46 104.069 162.102 100.12 158.152C96.1716 154.201 90.8155 151.981 85.23 151.98Z" fill="#6C63FF"/>
<path d="M305.46 734.5C304.65 731.07 304.16 728.07 304.16 728.07C304.228 725.802 303.715 723.554 302.67 721.54V720.6V713.7C303.143 712.448 303.725 711.24 304.41 710.09C305.65 707.93 304.41 699.99 304.41 699.99C304.41 699.99 299.81 688.8 300.92 681.7C302.03 674.6 291.48 650.17 291.48 650.17C291.547 647.806 291.882 645.458 292.48 643.17C292.594 642.692 292.638 642.2 292.61 641.71C292.615 641.65 292.615 641.59 292.61 641.53V641.59C292.45 636.91 288.75 628.13 288.75 628.13L289.25 611.41C289.25 611.41 291.61 601.54 287.76 588.3C286.41 583.68 285.55 579.99 285 577.13C284.94 576.81 284.88 576.5 284.83 576.2C292.76 574.99 298.83 573.98 298.83 573.98C298.83 573.98 294.23 554.73 291.12 551.36C288.01 547.99 285.53 537.41 285.53 537.41C285.53 537.41 283.91 523.81 286.53 519.84C289.15 515.87 289.53 509.01 289.53 509.01C289.53 509.01 295.53 504.68 296.24 502.75C297.299 500.01 297.972 497.136 298.24 494.21C298.24 491.92 297.49 489.88 297.74 488.67C297.99 487.46 296 482.9 297 480.73C297.257 480.063 297.39 479.355 297.39 478.64C297.395 478.62 297.395 478.6 297.39 478.58V478.58C297.394 476.684 297.216 474.792 296.86 472.93C295.138 471.473 293.127 470.396 290.96 469.77L290.83 469.26L290.49 467.91C290.302 467.779 290.105 467.662 289.9 467.56V467.06V465.06L290.83 460.66C292.67 453.03 282.47 451.89 282.47 451.89C281.853 450.716 280.823 449.811 279.58 449.35C277.58 448.63 279.24 460.85 280.2 461.63C280.92 462.21 283.2 466.05 284.2 467.93L284.38 468.24C284.21 468.39 284.053 468.554 283.91 468.73L284.3 471.38L284.36 471.79C283.683 472.628 283.133 473.561 282.73 474.56C282.73 474.56 284.6 476.61 284.22 478.9C284.076 480.687 284.287 482.485 284.84 484.19C284.73 484.06 283.42 482.64 282.11 482.99C280.8 483.34 277.11 484.43 277.11 484.43C277.11 484.43 274.37 484.91 274.62 485.51C274.87 486.11 272.76 488.76 272.76 488.76L265.41 481.76C265.33 481.55 265.26 481.34 265.19 481.13C264.889 480.151 264.678 479.147 264.56 478.13C265.358 477.939 266.14 477.688 266.9 477.38C267.661 477.112 268.346 476.666 268.9 476.08C269.516 475.12 269.919 474.039 270.08 472.91C270.66 470.77 271.91 468.86 272.81 466.83C274.294 463.419 274.786 459.658 274.23 455.98C274.116 454.84 273.732 453.743 273.11 452.78C271.91 451.13 269.73 450.46 268.11 449.14C266.49 447.82 265.51 445.82 263.66 444.83C261.902 444.064 259.942 443.896 258.08 444.35C254.404 444.949 250.873 446.231 247.67 448.13C246.59 448.77 245.42 449.5 244.18 449.28C243.159 448.969 242.274 448.32 241.67 447.44C241.666 447.403 241.666 447.367 241.67 447.33L241.58 447.24C240.809 448.97 240.42 450.846 240.44 452.74C240.44 453.03 240.44 453.32 240.44 453.62C240.44 453.72 240.44 453.82 240.44 453.92C240.445 454.007 240.445 454.093 240.44 454.18V454.18C240.435 454.312 240.415 454.443 240.38 454.57C240.228 454.948 239.996 455.29 239.7 455.57C239.469 455.819 239.268 456.095 239.1 456.39C239.1 456.29 239.16 456.19 239.2 456.09C238.728 456.771 238.461 457.572 238.43 458.4C238.39 459.006 238.592 459.602 238.99 460.06C239.353 460.431 239.752 460.766 240.18 461.06C240.039 461.866 239.969 462.682 239.97 463.5C239.983 465.946 240.626 468.348 241.838 470.473C243.051 472.598 244.79 474.374 246.89 475.63L247.14 476.26C248.204 478.786 248.66 481.526 248.47 484.26C248.47 484.46 248.47 484.65 248.38 484.85L248.12 485.15C248.12 485.15 235.98 485.27 233.12 482.68C230.26 480.09 225.91 489 225.91 489C225.91 489 221.56 489.85 220.69 489C219.82 488.15 214.69 488.88 214.69 488.88C212.604 487.033 209.895 486.047 207.11 486.12C205.412 484.825 203.536 483.781 201.54 483.02L201.4 482.97C200.524 482.653 199.587 482.537 198.66 482.63C198.66 482.63 192.66 477.69 190.96 475.05C189.26 472.41 180.96 462.58 180.89 462.53V462.06L180.79 460.63C180.545 460.67 180.298 460.693 180.05 460.7C180.05 460.55 179.95 460.39 179.88 460.2C179.402 458.821 178.814 457.484 178.12 456.2C178.12 456.2 178.12 454.4 178.65 453.95C179.18 453.5 178.43 446.88 178.43 446.88C178.43 446.88 173.05 434.31 168.24 443.69C168.24 443.69 159.13 449.76 166.77 456.84C166.77 456.84 169.77 458.31 170.25 459.48C170.54 460.24 171.57 462.37 172.25 463.78L172.56 464.41L172.47 464.48L172.59 465.66V466.12C171.15 466.93 170.18 467.74 170.41 468.36C170.838 469.402 171.13 470.494 171.28 471.61C171.28 471.61 181.85 484.84 183.22 490.5C183.22 490.5 211.56 507.34 220.88 508.55L219.27 516.97C219.029 519.249 218.905 521.538 218.9 523.83C219.02 525.63 217.78 533.83 217.78 533.83C217.78 533.83 216.16 545.83 214.78 547.54C213.4 549.25 213.66 556.45 213.66 556.45C213.336 559.904 212.714 563.323 211.8 566.67C210.43 571.25 211.43 576.9 211.43 576.9C211.43 576.9 206.7 587.73 218.02 580.39C218.02 580.39 223.57 580.05 230.02 579.83C230.02 580.04 230.02 580.25 230.02 580.47C230.02 581.29 230.02 582.18 230.02 583.12C229.94 589.32 229.9 597.87 230.18 604.34C230.68 615.77 234.18 638.34 234.18 638.34V649.7C233.962 650.769 233.855 651.859 233.86 652.95C233.776 656.957 234.838 660.905 236.92 664.33L237.79 671.91C237.79 671.91 239.79 676.91 239.87 679.91C239.862 680.152 239.832 680.393 239.78 680.63C239.705 681.012 239.671 681.401 239.68 681.79C239.57 685.23 241.68 693.47 241.68 693.47C241.68 693.47 241.81 701.77 243.05 702.25C244.11 702.66 241.63 707.04 240.89 708.25C240.868 708.171 240.852 708.091 240.84 708.01C240.75 708.17 240.69 708.26 240.69 708.26C240.432 708.93 240.3 709.642 240.3 710.36C240.228 710.928 240.319 711.504 240.564 712.022C240.808 712.539 241.195 712.976 241.68 713.28C244.04 714.73 245.31 715.93 243.31 716.41C242.572 716.522 241.841 716.676 241.12 716.87C241.12 716.78 241.04 716.68 241.01 716.59C240.748 716.708 240.531 716.906 240.391 717.156C240.25 717.407 240.194 717.695 240.23 717.98C240.252 718.963 240.509 719.927 240.98 720.79C241.857 722.961 242.984 725.021 244.34 726.93L245.34 726.82C245.195 727.175 245.007 727.511 244.78 727.82C244.422 728.342 243.941 728.767 243.38 729.06C242.859 729.37 242.281 729.57 241.68 729.65C241.005 729.668 240.342 729.83 239.735 730.125C239.128 730.42 238.591 730.841 238.16 731.36C236.92 732.96 236.16 735.15 238.59 737.07L247.48 740.13C247.48 740.13 262.77 742.13 261.96 738.69C261.15 735.25 260.66 732.26 260.66 732.26C260.72 730.161 260.292 728.076 259.41 726.17C259.257 725.855 259.076 725.554 258.87 725.27L259.41 725.21C259.41 725.21 260.53 717.63 262.02 716.21C262.37 715.88 262.45 715.62 262.36 715.42C262.52 715.01 262.13 714.77 261.63 714.63L261.52 714.93C261.033 714.828 260.537 714.774 260.04 714.77C260.04 714.77 259.54 710.77 261.15 709.35C261.282 709.186 261.378 708.996 261.433 708.793C261.488 708.59 261.501 708.378 261.47 708.17C261.478 707.625 261.421 707.081 261.3 706.55L261.24 706.65C260.322 703.443 259.127 700.321 257.67 697.32C257.67 697.32 257.55 693.71 258.54 692.26C259.53 690.81 258.42 672.65 258.42 672.65C258.42 672.65 258.79 663.87 257.67 659.78C256.55 655.69 259.04 650.87 259.04 650.87V650.61V650.55C259.04 650.55 258.98 650.01 258.89 649.16V649.25C258.64 646.92 258.17 642.71 257.82 640.77C257.32 638 257.94 624.77 257.94 624.77L260.18 619.12L264.18 628.86L268.4 641.86C269.606 643.47 270.349 645.379 270.55 647.38C270.55 647.52 270.55 647.66 270.55 647.79C270.531 648.08 270.531 648.37 270.55 648.66C270.479 650.301 270.931 651.922 271.84 653.29C271.84 653.29 272.96 659.43 274.7 660.99C276.44 662.55 276.44 665.56 276.44 665.56C276.44 665.56 278.55 674.47 279.55 676.03C280.39 677.35 280.43 680.97 280.42 682.03V682.36C280.42 682.36 280.71 685.54 280.7 688.22C280.7 688.54 280.7 688.87 280.7 689.22V689.15C280.698 689.878 280.611 690.603 280.44 691.31V691.44C280.44 691.29 280.44 691.13 280.44 690.99C279.994 692.806 279.779 694.67 279.8 696.54C279.74 699.74 280.23 703.54 282.17 705.75C285.53 709.6 287.64 709.12 287.64 709.12C287.64 709.12 286.02 713.93 284.03 714.9C283.956 714.936 283.885 714.98 283.82 715.03C283.82 714.94 283.82 714.84 283.77 714.75C283.554 714.994 283.391 715.279 283.291 715.589C283.191 715.899 283.157 716.226 283.19 716.55C283.28 719.119 284.137 721.602 285.65 723.68C286.117 724.149 286.695 724.493 287.33 724.68L287.02 724.87C286.796 724.993 286.566 725.103 286.33 725.2C286.013 725.339 285.675 725.427 285.33 725.46C284.655 725.478 283.992 725.64 283.385 725.935C282.778 726.23 282.241 726.651 281.81 727.17C280.57 728.77 279.81 730.96 282.24 732.88L291.13 735.94C291.13 735.94 306.23 737.98 305.46 734.5Z" fill="url(#paint0_linear)"/>
<path d="M247.06 740.18L238.45 737.12C236.08 735.2 236.84 733.01 238.04 731.41C238.449 730.895 238.965 730.476 239.552 730.181C240.139 729.885 240.783 729.721 241.44 729.7C242.025 729.621 242.587 729.42 243.09 729.11C243.636 728.811 244.102 728.386 244.45 727.87C245.088 726.875 245.434 725.721 245.45 724.54C245.45 724.54 254.9 721.78 257.45 724.54C257.912 725.041 258.3 725.607 258.6 726.22C259.451 728.135 259.861 730.216 259.8 732.31C259.8 732.31 260.28 735.31 261.06 738.74C261.84 742.17 247.06 740.18 247.06 740.18Z" fill="#2D293D"/>
<path d="M289.17 735.98L280.57 732.92C278.19 731 278.95 728.81 280.15 727.22C280.558 726.702 281.075 726.279 281.664 725.982C282.253 725.685 282.9 725.52 283.56 725.5C283.905 725.47 284.243 725.382 284.56 725.24C284.788 725.146 285.008 725.036 285.22 724.91C287.63 723.59 287.57 720.34 287.57 720.34C287.57 720.34 297.01 717.57 299.57 720.34C299.916 720.714 300.218 721.127 300.47 721.57C301.485 723.597 301.984 725.844 301.92 728.11C301.92 728.11 302.4 731.11 303.18 734.54C303.96 737.97 289.17 735.98 289.17 735.98Z" fill="#2D293D"/>
<path opacity="0.1" d="M257.46 724.54C257.922 725.042 258.31 725.607 258.61 726.22V726.22L244.45 727.86C245.088 726.865 245.434 725.712 245.45 724.53C245.45 724.53 254.88 721.78 257.46 724.54Z" fill="black"/>
<path opacity="0.1" d="M300.48 721.53V724.18C298.28 727.81 287.63 727.02 284.54 725.18C284.768 725.086 284.988 724.976 285.2 724.85C287.61 723.53 287.55 720.28 287.55 720.28C287.55 720.28 296.99 717.51 299.55 720.28C299.908 720.659 300.22 721.078 300.48 721.53V721.53Z" fill="black"/>
<path d="M302.17 710.1C301.506 711.254 300.941 712.461 300.48 713.71V723.22C298.08 727.22 285.56 725.87 283.88 723.7C282.2 721.53 280.39 715.88 282.31 714.92C284.23 713.96 285.8 709.14 285.8 709.14C285.8 709.14 283.8 709.62 280.51 705.77C277.22 701.92 278.23 693.38 278.83 691.33C279.43 689.28 278.83 682.43 278.83 682.43C278.83 682.43 278.95 677.62 277.99 676.05C277.03 674.48 274.99 665.58 274.99 665.58C274.99 665.58 274.99 662.58 273.31 661.01C271.63 659.44 270.54 653.31 270.54 653.31C269.555 651.777 269.131 649.95 269.34 648.14C269.7 645.14 267.29 641.88 267.29 641.88L263.2 628.88L259.35 619.13L257.19 624.78C257.19 624.78 256.58 638.02 257.07 640.78C257.56 643.54 258.27 650.88 258.27 650.88C258.27 650.88 255.86 655.7 256.95 659.79C258.04 663.88 257.67 672.66 257.67 672.66C257.67 672.66 258.75 690.83 257.79 692.28C256.83 693.73 256.95 697.28 256.95 697.28C256.95 697.28 261.88 707.87 260.31 709.28C258.74 710.69 259.23 714.7 259.23 714.7C259.23 714.7 262.6 714.7 261.16 716.14C259.72 717.58 258.63 725.14 258.63 725.14L244.06 726.98C242.745 725.063 241.651 723.003 240.8 720.84C238.88 716.39 241.16 716.84 243.1 716.39C245.04 715.94 243.81 714.71 241.52 713.26C239.23 711.81 240.52 708.57 240.52 708.57C240.52 708.57 244.01 702.67 242.81 702.19C241.61 701.71 241.48 693.41 241.48 693.41C241.48 693.41 239.08 683.54 239.68 680.9C240.28 678.26 237.75 671.9 237.75 671.9L236.91 664.32C234.346 660.009 233.423 654.917 234.31 649.98V638.27C234.31 638.27 230.94 615.65 230.45 604.27C230.15 596.95 230.23 586.96 230.33 580.72C230.39 577.23 230.45 574.91 230.45 574.91L282.45 569.5C282.533 572.097 282.851 574.681 283.4 577.22C283.93 580.07 284.76 583.77 286.06 588.39C289.79 601.62 287.51 611.49 287.51 611.49L287.03 628.21C287.03 628.21 291.6 639.4 290.64 643.21C290.047 645.499 289.712 647.847 289.64 650.21C289.64 650.21 299.87 674.64 298.79 681.74C297.71 688.84 302.17 699.98 302.17 699.98C302.17 699.98 303.37 707.98 302.17 710.1Z" fill="#464353"/>
<path opacity="0.05" d="M272.45 647.42L288.23 645.31C288.23 645.31 279.31 654.45 272.45 647.42Z" fill="black"/>
<path opacity="0.1" d="M285.98 629.85C285.98 629.85 286.53 635.44 283.1 637.55C283.1 637.55 289.23 636.59 285.98 629.85Z" fill="black"/>
<path opacity="0.1" d="M285.01 612.04C285.01 612.04 271.79 622.93 267.01 622.04C262.23 621.15 285.01 612.04 285.01 612.04Z" fill="black"/>
<path opacity="0.1" d="M252.83 652.53C252.83 652.53 242.83 654.82 242.49 658.85C242.15 662.88 252.83 652.53 252.83 652.53Z" fill="black"/>
<path opacity="0.05" d="M255.04 702.7C255.04 702.7 240.85 705.35 244.88 707.16C248.337 708.526 251.898 709.609 255.53 710.4C255.53 710.4 260.1 710.64 255.04 702.7Z" fill="black"/>
<g opacity="0.05">
<path opacity="0.05" d="M242.01 709.98C241.653 709.756 241.35 709.455 241.125 709.098C240.9 708.741 240.758 708.339 240.71 707.92L240.57 708.18C240.57 708.18 239.24 711.42 241.57 712.87C241.83 713.03 242.08 713.2 242.31 713.36C242.73 713.28 243.19 713.22 243.62 713.11C245.52 712.67 244.3 711.46 242.01 709.98Z" fill="black"/>
<path opacity="0.05" d="M260.3 709.06C260.69 708.7 260.67 707.77 260.44 706.58C259.859 707.648 259.579 708.855 259.63 710.07C259.773 709.686 260.002 709.341 260.3 709.06V709.06Z" fill="black"/>
<path opacity="0.05" d="M258.11 649.2C257.576 650.62 257.239 652.108 257.11 653.62C257.384 652.589 257.752 651.584 258.21 650.62C258.21 650.62 258.23 650.04 258.11 649.2Z" fill="black"/>
<path opacity="0.05" d="M290.62 642.88C290.714 642.447 290.758 642.004 290.75 641.56C290.57 642.46 290.45 643.3 290.36 644.03C290.44 643.65 290.52 643.27 290.62 642.88Z" fill="black"/>
<path opacity="0.05" d="M257.77 691.98C258.049 691.119 258.171 690.214 258.13 689.31C257.681 690.377 257.446 691.522 257.44 692.68C257.522 692.434 257.632 692.199 257.77 691.98V691.98Z" fill="black"/>
<path opacity="0.05" d="M260.75 714.66C260.007 717.076 259.455 719.547 259.1 722.05L244.55 723.74C243.23 721.826 242.136 719.765 241.29 717.6C241.135 717.254 240.998 716.9 240.88 716.54C240.01 716.94 239.66 717.84 240.81 720.54C241.654 722.703 242.748 724.761 244.07 726.67L258.61 724.98C258.61 724.98 259.7 717.4 261.14 715.98C261.85 715.21 261.4 714.85 260.75 714.66Z" fill="black"/>
<path opacity="0.05" d="M241.53 693.05C241.53 693.05 241.65 701.36 242.85 701.84C243.46 700.47 243.85 699.17 243.32 698.95C242.12 698.47 242 690.17 242 690.17C242 690.17 239.59 680.3 240.2 677.65C240.81 675 238.27 668.65 238.27 668.65L237.43 661.07C234.857 656.769 233.916 651.687 234.78 646.75V635.06C234.78 635.06 231.41 612.44 230.93 601.01C230.62 593.69 230.71 583.7 230.81 577.46C230.81 576.34 230.81 575.34 230.81 574.46H230.4C230.4 574.46 230.34 576.77 230.28 580.27C230.18 586.5 230.09 596.5 230.4 603.82C230.88 615.25 234.25 637.87 234.25 637.87V649.54C233.368 654.523 234.331 659.656 236.96 663.98L237.8 671.56C237.8 671.56 240.33 677.93 239.72 680.56C239.11 683.19 241.53 693.05 241.53 693.05Z" fill="black"/>
<path opacity="0.05" d="M284.36 720.49C283.178 718.778 282.392 716.824 282.06 714.77C280.57 716.11 282.28 721.32 283.88 723.38C285.48 725.44 298.08 726.87 300.49 722.89V720.6C297.23 723.83 285.96 722.54 284.36 720.49Z" fill="black"/>
<path opacity="0.05" d="M302.65 706.89C301.991 708.045 301.429 709.252 300.97 710.5V712.19C301.24 711.57 301.63 710.75 302.17 709.78C302.556 708.829 302.737 707.806 302.7 706.78L302.65 706.89Z" fill="black"/>
<path opacity="0.05" d="M285.1 708.79C285.56 707.864 285.958 706.909 286.29 705.93C286.29 705.93 284.29 706.41 280.99 702.56C278.63 699.76 278.5 694.47 278.83 691.01C278.23 693.06 277.26 701.6 280.51 705.45C282.64 707.98 284.23 708.63 285.1 708.79Z" fill="black"/>
<path opacity="0.05" d="M278.83 682.11C279.038 684.481 279.118 686.861 279.07 689.24C279.15 688.77 279.24 688.39 279.31 688.12C279.92 686.12 279.31 679.22 279.31 679.22C279.31 679.22 279.43 674.4 278.47 672.84C277.51 671.28 275.47 662.37 275.47 662.37C275.47 662.37 275.47 659.37 273.79 657.8C272.11 656.23 271.02 650.1 271.02 650.1C270.031 648.568 269.604 646.741 269.81 644.93C270.18 641.93 267.81 638.67 267.81 638.67L263.72 625.67L259.82 615.98L257.65 621.63C257.65 621.63 257.65 622.34 257.58 623.46L259.34 618.87L263.19 628.61L267.28 641.61C267.28 641.61 269.68 644.86 269.28 647.86C269.099 649.659 269.54 651.466 270.53 652.98C270.53 652.98 271.61 659.11 273.29 660.68C274.97 662.25 274.98 665.25 274.98 665.25C274.98 665.25 276.98 674.15 277.98 675.72C278.98 677.29 278.83 682.11 278.83 682.11Z" fill="black"/>
</g>
<path d="M288.93 460.73L288.03 465.13L288.08 467.13V468.57L283.08 469.09L282.52 468.09C281.52 466.21 279.32 462.38 278.62 461.79C277.69 461.01 276.04 448.79 278.02 449.52C279.235 449.986 280.233 450.888 280.82 452.05C280.82 452.05 290.71 453.09 288.93 460.73Z" fill="#FFCDD3"/>
<path opacity="0.1" d="M288.12 468.52L283.12 469.04L282.56 468.04C283.235 467.27 284.157 466.758 285.167 466.592C286.177 466.426 287.214 466.616 288.1 467.13L288.12 468.52Z" fill="black"/>
<path d="M289.38 470.9L282.77 472.44L282.63 471.44L282.25 468.79C282.611 468.309 283.064 467.903 283.583 467.598C284.101 467.293 284.675 467.094 285.271 467.012C285.867 466.93 286.474 466.967 287.056 467.122C287.637 467.276 288.183 467.544 288.66 467.91L288.99 469.26L289.38 470.9Z" fill="#DCE6F2"/>
<path d="M182.14 461.21L175.08 465.01L174.44 463.67C173.76 462.26 172.76 460.14 172.44 459.38C172.02 458.21 169.07 456.73 169.07 456.73C161.67 449.66 170.48 443.59 170.48 443.59C175.15 434.2 180.35 446.77 180.35 446.77C180.35 446.77 181.07 453.4 180.56 453.84C180.05 454.28 180.05 456.1 180.05 456.1C180.725 457.386 181.297 458.724 181.76 460.1C182.03 460.8 182.14 461.21 182.14 461.21Z" fill="#FFCDD3"/>
<path opacity="0.1" d="M182.14 461.21L175.08 465.01L174.44 463.67C175.44 462.84 178.97 459.97 180.13 460.1C180.689 460.157 181.251 460.157 181.81 460.1C182.03 460.8 182.14 461.21 182.14 461.21Z" fill="black"/>
<path d="M182.86 463.35L174.92 467.26L174.76 465.55L174.65 464.38C174.65 464.38 179.25 460.43 180.65 460.58C181.34 460.678 182.04 460.678 182.73 460.58L182.82 462.01L182.86 463.35Z" fill="#DCE6F2"/>
<path d="M269.68 489.91C269.68 489.91 235.05 493.82 241.52 491.72C246.03 490.25 247.82 487.39 248.2 484.21C248.374 481.48 247.933 478.747 246.91 476.21C246.089 474.025 245.051 471.927 243.81 469.95C243.81 469.95 270.28 455.39 264.99 468.63C264.167 470.629 263.66 472.745 263.49 474.9C263.327 477.036 263.554 479.185 264.16 481.24C265.164 484.584 267.075 487.585 269.68 489.91V489.91Z" fill="#FFCDD3"/>
<path opacity="0.1" d="M264.99 468.62C264.167 470.619 263.66 472.735 263.49 474.89C260.99 476.98 258.26 476.89 254.75 476.89C252.05 476.89 249.06 477.55 246.91 476.25C246.089 474.064 245.051 471.967 243.81 469.99C243.81 469.99 270.28 455.38 264.99 468.62Z" fill="black"/>
<path d="M254.28 477.77C262.189 477.77 268.6 471.359 268.6 463.45C268.6 455.541 262.189 449.13 254.28 449.13C246.371 449.13 239.96 455.541 239.96 463.45C239.96 471.359 246.371 477.77 254.28 477.77Z" fill="#FFCDD3"/>
<path opacity="0.1" d="M269.68 489.91C269.68 489.91 235.05 493.82 241.52 491.72C246.03 490.25 247.82 487.39 248.2 484.21C249.92 482.34 253.38 480.99 255.61 480.28C257.639 479.598 259.83 479.563 261.88 480.18C262.686 480.398 263.454 480.735 264.16 481.18C265.154 484.546 267.066 487.569 269.68 489.91Z" fill="black"/>
<path opacity="0.1" d="M289.38 470.9L282.77 472.44L282.63 471.44C283.336 470.466 284.326 469.733 285.465 469.343C286.603 468.953 287.834 468.924 288.99 469.26L289.38 470.9Z" fill="black"/>
<path opacity="0.1" d="M182.86 463.35L174.92 467.26L174.76 465.55C177.334 464.172 180.009 462.988 182.76 462.01L182.86 463.35Z" fill="black"/>
<path opacity="0.1" d="M283.38 577.17C269.97 579.28 250.88 582.04 247.85 581.12C245.34 580.35 237.32 580.43 230.33 580.67C230.39 577.18 230.45 574.86 230.45 574.86L282.45 569.45C282.527 572.046 282.838 574.63 283.38 577.17V577.17Z" fill="black"/>
<path d="M296.75 573.98C296.75 573.98 252.59 581.56 247.85 580.11C243.11 578.66 218.78 580.24 218.78 580.24C207.83 587.57 212.41 576.75 212.41 576.75C212.41 576.75 211.41 571.09 212.77 566.52C213.652 563.166 214.254 559.744 214.57 556.29C214.57 556.29 214.33 549.07 215.65 547.39C216.97 545.71 218.54 533.67 218.54 533.67C218.54 533.67 219.75 525.49 219.63 523.67C219.51 521.85 219.99 516.82 219.99 516.82L221.55 508.39C212.55 507.19 185.09 490.34 185.09 490.34C183.77 484.69 173.54 471.45 173.54 471.45C173.392 470.337 173.11 469.245 172.7 468.2C171.98 466.28 182.81 462.43 182.81 462.43C182.81 462.43 190.87 472.3 192.55 474.94C194.23 477.58 200.01 482.52 200.01 482.52C200.909 482.43 201.816 482.55 202.66 482.87H202.8C204.734 483.632 206.547 484.673 208.18 485.96C210.894 485.893 213.527 486.887 215.52 488.73C215.52 488.73 220.46 488.01 221.3 488.85C222.14 489.69 226.3 488.85 226.3 488.85C226.3 488.85 230.52 479.95 233.3 482.53C236.08 485.11 247.81 485 247.81 485C249.38 482.92 253.18 481.43 255.57 480.66C257.599 479.978 259.79 479.943 261.84 480.56C262.732 480.809 263.572 481.215 264.32 481.76L271.44 488.76C271.44 488.76 273.44 486.11 273.25 485.51C273.06 484.91 275.66 484.43 275.66 484.43C275.66 484.43 279.15 483.35 280.47 482.98C281.79 482.61 283.01 484.06 283.11 484.18C282.576 482.471 282.372 480.675 282.51 478.89C282.619 477.313 282.102 475.757 281.07 474.56C285.32 464.28 294.83 472.98 294.83 472.98C294.83 472.98 295.91 478.63 294.95 480.8C293.99 482.97 295.95 487.54 295.67 488.74C295.39 489.94 296.15 491.99 296.15 494.27C295.894 497.193 295.248 500.068 294.23 502.82C293.5 504.74 287.73 509.07 287.73 509.07C287.73 509.07 287.37 515.93 284.84 519.9C282.31 523.87 283.84 537.47 283.84 537.47C283.84 537.47 286.24 548.06 289.25 551.47C292.26 554.88 296.75 573.98 296.75 573.98Z" fill="#3F3D56"/>
<path opacity="0.1" d="M232.38 494.85C232.38 494.85 231.06 490.85 229.85 490.51C228.653 490.069 227.487 489.548 226.36 488.95L227.14 487.47C227.14 487.47 231.66 488.71 232.38 490.03C233.1 491.35 232.38 494.85 232.38 494.85Z" fill="black"/>
<path opacity="0.1" d="M208.23 486.06C207.99 487.27 197.29 488.35 197.29 488.35L202.7 482.92L202.84 482.97C204.778 483.731 206.594 484.773 208.23 486.06V486.06Z" fill="black"/>
<path d="M177.21 470.51C177.74 470.51 178.17 470.08 178.17 469.55C178.17 469.02 177.74 468.59 177.21 468.59C176.68 468.59 176.25 469.02 176.25 469.55C176.25 470.08 176.68 470.51 177.21 470.51Z" fill="#575988"/>
<path d="M178.44 472.44C178.97 472.44 179.4 472.01 179.4 471.48C179.4 470.95 178.97 470.52 178.44 470.52C177.91 470.52 177.48 470.95 177.48 471.48C177.48 472.01 177.91 472.44 178.44 472.44Z" fill="#575988"/>
<path d="M179.65 474.21C180.18 474.21 180.61 473.78 180.61 473.25C180.61 472.72 180.18 472.29 179.65 472.29C179.12 472.29 178.69 472.72 178.69 473.25C178.69 473.78 179.12 474.21 179.65 474.21Z" fill="#575988"/>
<path d="M180.91 476.14C181.44 476.14 181.87 475.71 181.87 475.18C181.87 474.65 181.44 474.22 180.91 474.22C180.38 474.22 179.95 474.65 179.95 475.18C179.95 475.71 180.38 476.14 180.91 476.14Z" fill="#575988"/>
<path d="M294.33 475.85C294.761 475.85 295.11 475.501 295.11 475.07C295.11 474.639 294.761 474.29 294.33 474.29C293.899 474.29 293.55 474.639 293.55 475.07C293.55 475.501 293.899 475.85 294.33 475.85Z" fill="#575988"/>
<path d="M294.45 477.63C294.881 477.63 295.23 477.281 295.23 476.85C295.23 476.419 294.881 476.07 294.45 476.07C294.019 476.07 293.67 476.419 293.67 476.85C293.67 477.281 294.019 477.63 294.45 477.63Z" fill="#575988"/>
<path d="M294.55 479.4C294.981 479.4 295.33 479.051 295.33 478.62C295.33 478.189 294.981 477.84 294.55 477.84C294.119 477.84 293.77 478.189 293.77 478.62C293.77 479.051 294.119 479.4 294.55 479.4Z" fill="#575988"/>
<path opacity="0.1" d="M232.44 527.45C232.33 527.31 259.44 561.56 280.51 541.77C280.51 541.77 247.23 546.28 232.44 527.45Z" fill="black"/>
<path opacity="0.1" d="M216.86 545.26C216.86 545.26 233.09 545.7 234.79 550.37V555.23C234.33 555.483 233.814 555.616 233.29 555.616C232.765 555.616 232.249 555.483 231.79 555.23C230.15 554.35 220.34 549.36 216.88 551.76L216.86 545.26Z" fill="black"/>
<path d="M217.16 545.26C217.16 545.26 232.68 545.68 234.31 550.13V554.77C233.867 555.013 233.37 555.141 232.865 555.141C232.36 555.141 231.863 555.013 231.42 554.77C229.85 553.92 220.42 549.17 217.16 551.46V545.26Z" fill="#3F3D56"/>
<path opacity="0.1" d="M225.72 509.98C227.378 513.815 229.49 517.438 232.01 520.77C234.755 524.46 238.086 527.676 241.87 530.29C241.87 530.29 225.99 512.25 225.72 509.98Z" fill="black"/>
<path opacity="0.1" d="M220.41 491.16C220.41 491.16 223.12 502.85 230.09 506.82L220.41 491.16Z" fill="black"/>
<path opacity="0.1" d="M216.23 492.34C216.16 492.12 213.82 501.58 225.23 506.82C225.23 506.82 220.41 505.18 216.23 492.34Z" fill="black"/>
<path opacity="0.1" d="M287.13 484.5C286.95 484.5 292.75 488.2 294.33 489.91C294.33 489.91 290.56 484.26 287.13 484.5Z" fill="black"/>
<path d="M250.41 476.42C250.521 477.184 250.918 477.877 251.52 478.36C251.942 478.559 252.403 478.662 252.87 478.66C257.24 478.93 261.78 479.12 265.87 477.44C266.636 477.177 267.323 476.727 267.87 476.13C268.446 475.169 268.807 474.094 268.93 472.98C269.5 470.84 270.71 468.98 271.58 466.9C273.04 463.458 273.528 459.68 272.99 455.98C272.882 454.843 272.508 453.747 271.9 452.78C270.74 451.13 268.63 450.46 267.1 449.14C265.57 447.82 264.58 445.81 262.8 444.82C261.103 444.065 259.203 443.896 257.4 444.34C253.83 444.952 250.409 446.238 247.32 448.13C246.32 448.77 245.14 449.5 243.95 449.28C242.928 448.953 242.052 448.282 241.47 447.38C240.619 449.341 240.252 451.478 240.4 453.61C240.449 453.921 240.449 454.239 240.4 454.55C240.246 454.925 240.019 455.265 239.73 455.55C238.65 456.8 237.98 458.78 239.04 460.04C239.51 460.59 240.22 460.89 240.67 461.45C241.48 462.45 241.2 463.9 241.18 465.19C241.141 465.637 241.254 466.085 241.5 466.46C241.734 466.676 242.02 466.828 242.33 466.901C242.64 466.975 242.964 466.967 243.27 466.88C243.879 466.697 244.518 466.636 245.15 466.7C245.822 466.925 246.4 467.368 246.79 467.96C248.77 470.52 249.56 473.33 250.41 476.42Z" fill="#2D293D"/>
<g opacity="0.1">
<path opacity="0.1" d="M268.23 475.03C267.685 475.627 266.997 476.075 266.23 476.33C262.23 478.02 257.65 477.82 253.29 477.55C252.823 477.559 252.36 477.456 251.94 477.25C251.332 476.775 250.931 476.083 250.82 475.32C249.97 472.23 249.19 469.41 247.17 466.85C246.782 466.256 246.204 465.811 245.53 465.59C244.898 465.526 244.259 465.587 243.65 465.77C243.344 465.857 243.02 465.865 242.71 465.791C242.4 465.718 242.114 465.566 241.88 465.35C241.633 464.975 241.523 464.526 241.57 464.08C241.57 462.79 241.86 461.34 241.05 460.34C240.6 459.78 239.89 459.48 239.42 458.93C239.119 458.519 238.935 458.034 238.888 457.527C238.84 457.02 238.931 456.51 239.15 456.05C238.38 457.27 238.05 458.83 238.94 459.89C239.41 460.44 240.12 460.74 240.57 461.3C241.38 462.3 241.1 463.75 241.08 465.04C241.041 465.487 241.154 465.935 241.4 466.31C241.634 466.527 241.92 466.679 242.23 466.753C242.54 466.826 242.864 466.818 243.17 466.73C243.779 466.547 244.418 466.486 245.05 466.55C245.722 466.775 246.3 467.219 246.69 467.81C248.69 470.38 249.49 473.19 250.34 476.28C250.451 477.044 250.848 477.737 251.45 478.22C251.872 478.419 252.333 478.522 252.8 478.52C257.17 478.79 261.71 478.98 265.8 477.3C266.564 477.035 267.251 476.585 267.8 475.99C268.072 475.642 268.282 475.25 268.42 474.83C268.36 474.9 268.32 474.98 268.23 475.03Z" fill="black"/>
</g>
<path opacity="0.1" d="M247.85 485.1C247.85 485.1 265.74 487.47 267.35 484.78Z" fill="black"/>
<path opacity="0.1" d="M282.63 477.7C282.63 477.7 292.56 477.7 294.75 481.44Z" fill="black"/>
<defs>
<linearGradient id="paint0_linear" x1="234.69" y1="740.76" x2="234.69" y2="440.1" gradientUnits="userSpaceOnUse">
<stop stop-color="#808080" stop-opacity="0.25"/>
<stop offset="0.54" stop-color="#808080" stop-opacity="0.12"/>
<stop offset="1" stop-color="#808080" stop-opacity="0.1"/>
</linearGradient>
</defs>
</svg>
