<svg width="188" height="288" viewBox="0 0 188 288" fill="none" xmlns="http://www.w3.org/2000/svg">
<path opacity="0.1" d="M93.6801 287.29C145.418 287.29 187.36 283.014 187.36 277.74C187.36 272.466 145.418 268.19 93.6801 268.19C41.942 268.19 0 272.466 0 277.74C0 283.014 41.942 287.29 93.6801 287.29Z" fill="#6C63FF"/>
<path d="M62.74 262.03C67.28 262.62 71.99 263.03 76.34 261.57C77.01 261.36 77.7801 260.9 77.6901 260.21C77.6389 259.969 77.5328 259.743 77.38 259.55C75.734 257.091 74.3498 254.467 73.25 251.72C73.2095 251.578 73.1212 251.454 73 251.37C72.8584 251.315 72.7016 251.315 72.5601 251.37C70.5601 251.89 68.8199 253.19 66.8199 253.74C65.805 254.019 64.7457 254.101 63.7 253.98C62.8 253.88 61.56 253.13 60.75 253.22C61.25 256.19 62.39 259 62.74 262.03Z" fill="#6C63FF"/>
<path d="M148.67 254.42C151.67 252.42 154.77 250.2 156.54 247.03C156.667 246.844 156.74 246.625 156.75 246.4C156.722 246.175 156.636 245.961 156.5 245.78C154.814 243.105 152.647 240.766 150.11 238.88C148.783 239.818 147.584 240.924 146.54 242.17C145.79 242.96 143.71 244.26 143.69 245.44C143.69 246.15 144.48 246.92 144.85 247.44C145.35 248.18 145.85 248.94 146.28 249.7C146.51 250.16 148.89 254.3 148.67 254.42Z" fill="#6C63FF"/>
<path d="M80.54 271.21C80.6032 271.92 80.4118 272.628 80 273.21C79.6794 273.527 79.2837 273.757 78.85 273.88C72.49 276.15 65.17 273.31 58.85 275.56C57.54 276.02 56.31 276.68 55 277.12C53.4484 277.588 51.8476 277.873 50.23 277.97C47.98 278.19 45.73 278.32 43.48 278.38C41.774 278.5 40.0599 278.352 38.4 277.94C37.5706 277.725 36.7951 277.339 36.1235 276.807C35.4519 276.275 34.8989 275.608 34.5 274.85C34.1593 274.167 34.0913 273.381 34.31 272.65C34.4065 272.392 34.5451 272.152 34.72 271.94C35.1526 271.46 35.659 271.051 36.22 270.73L38.56 269.22C39.6544 268.444 40.8442 267.812 42.1 267.34C43.02 267.04 44.01 266.91 44.94 266.64C48.23 265.64 50.73 263.07 53.06 260.57L56.24 257.18C56.5345 256.806 56.9109 256.505 57.34 256.3C57.7765 256.149 58.2419 256.101 58.7 256.16C61.79 256.387 64.7725 257.391 67.37 259.08C68.0398 259.57 68.7566 259.992 69.51 260.34C70.5085 260.63 71.5557 260.713 72.5874 260.584C73.6191 260.455 74.6136 260.117 75.51 259.59C76.33 259.16 76.15 258.89 76.51 258.12C76.87 257.35 77.69 256.85 78.41 257.56C78.6254 257.807 78.7795 258.102 78.86 258.42C79.56 260.69 79.29 263.12 79.29 265.49C79.2711 265.862 79.3185 266.234 79.43 266.59C79.6069 266.941 79.8144 267.275 80.05 267.59C80.1013 267.672 80.1448 267.759 80.18 267.85C80.5751 268.923 80.6987 270.077 80.54 271.21V271.21Z" fill="#514E7F"/>
<path d="M80.54 271.21C80.6032 271.919 80.4118 272.628 80 273.21C79.6794 273.527 79.2837 273.757 78.85 273.88C72.49 276.15 65.17 273.31 58.85 275.56C57.54 276.02 56.31 276.68 55 277.12C53.4484 277.588 51.8476 277.873 50.23 277.97C47.98 278.19 45.73 278.32 43.48 278.38C41.774 278.5 40.0599 278.352 38.4 277.94C37.5706 277.725 36.7951 277.339 36.1235 276.807C35.4519 276.275 34.8989 275.608 34.5 274.85C34.1593 274.167 34.0913 273.381 34.31 272.65C34.4065 272.392 34.5451 272.152 34.72 271.94C35.1 272.72 35.37 273.74 35.6 274.11C35.9166 274.662 36.3484 275.14 36.866 275.511C37.3836 275.882 37.975 276.138 38.6 276.26C39.517 276.308 40.4352 276.189 41.31 275.91C47.07 274.48 53.19 274.46 58.71 272.3C60.5538 271.431 62.4589 270.699 64.41 270.11C66.4496 269.803 68.5076 269.636 70.5699 269.61C73.8199 269.35 76.96 268.37 80.17 267.86C80.5668 268.929 80.6938 270.08 80.54 271.21Z" fill="#464353"/>
<path d="M163.19 254.03C162.89 256.44 161.36 258.52 159.68 260.28C157.887 261.918 156.247 263.715 154.78 265.65C153.12 268.17 152.39 271.28 150.25 273.41C149.44 274.199 148.525 274.872 147.53 275.41C146.412 276.07 145.229 276.613 144 277.03C140.81 278.03 137.37 277.82 134 277.58C132.918 277.567 131.847 277.357 130.84 276.96C130.371 276.729 129.923 276.458 129.5 276.15C128.684 275.622 128 274.914 127.5 274.08C127.253 273.624 127.186 273.093 127.31 272.59C127.509 272.023 127.854 271.52 128.31 271.13C129.06 270.35 129.866 269.625 130.72 268.96C131.896 268.199 132.954 267.269 133.86 266.2C134.416 265.354 134.825 264.421 135.07 263.44C135.551 261.727 135.846 259.966 135.95 258.19C135.948 257.01 136.072 255.833 136.32 254.68C136.83 252.88 138.17 251.25 138.01 249.38C137.952 249.112 137.977 248.833 138.08 248.58C138.246 248.389 138.465 248.253 138.71 248.19C139.76 247.779 140.866 247.526 141.99 247.44C142.547 247.405 143.105 247.493 143.623 247.699C144.142 247.904 144.609 248.222 144.99 248.63C145.46 249.19 145.76 249.97 146.45 250.22C146.78 250.29 147.12 250.29 147.45 250.22C149.13 250.05 150.92 249.84 152.21 248.75C152.827 248.199 153.322 247.526 153.667 246.774C154.011 246.022 154.196 245.207 154.21 244.38C154.21 243.76 153.93 243.11 154.88 242.98C155.61 242.88 156.18 243.64 156.55 244.14C158.012 245.848 159.104 247.84 159.76 249.99C159.954 249.911 160.161 249.87 160.37 249.87C160.797 249.864 161.22 249.963 161.6 250.158C161.98 250.353 162.306 250.639 162.55 250.99C163.133 251.889 163.361 252.972 163.19 254.03V254.03Z" fill="#514E7F"/>
<path d="M163.19 254.03C162.89 256.44 161.36 258.52 159.68 260.28C157.887 261.918 156.247 263.715 154.78 265.65C153.12 268.17 152.39 271.28 150.25 273.41C149.44 274.199 148.525 274.872 147.53 275.41C146.412 276.07 145.229 276.613 144 277.03C140.81 278.03 137.37 277.82 134 277.58C132.918 277.567 131.847 277.357 130.84 276.96C130.371 276.729 129.923 276.458 129.5 276.15C128.684 275.622 128 274.914 127.5 274.08C128.142 273.767 128.846 273.6 129.56 273.59C131.05 273.67 132.13 275.07 133.56 275.5C135.56 276.11 137.56 274.68 139.65 274.19C140.99 273.88 142.41 273.97 143.72 273.54C144.819 273.114 145.834 272.498 146.72 271.72C147.936 270.85 149.018 269.805 149.93 268.62C150.692 267.437 151.326 266.177 151.82 264.86C152.902 262.336 154.176 259.899 155.63 257.57C155.845 257.204 156.107 256.868 156.41 256.57C156.72 256.28 157.11 256.07 157.41 255.81C158.78 254.81 159.35 253.04 159.83 251.4C159.957 250.892 160.138 250.399 160.37 249.93C160.797 249.924 161.22 250.023 161.6 250.218C161.98 250.413 162.306 250.699 162.55 251.05C163.118 251.933 163.346 252.992 163.19 254.03V254.03Z" fill="#464353"/>
<path d="M19.53 40.4199C21.2215 41.6934 22.614 43.3215 23.61 45.1899C24.61 47.0699 30.1 61.6699 29.78 63.7599C31.58 61.9399 38.72 61.6399 40.51 59.8299C41.27 59.0699 45.38 55.2699 45.99 54.3899C46.6 53.5099 51.18 51.6199 51.68 50.7199C53.55 47.3699 38.42 34.7199 40.35 31.3599C40.4609 31.2099 40.5174 31.0264 40.51 30.8399C40.4688 30.6845 40.3816 30.5451 40.26 30.4399C38.915 29.2816 37.4461 28.2755 35.88 27.4399C34.2934 26.5861 33.097 25.1534 32.54 23.4399C31.1156 24.0962 29.8084 24.9813 28.67 26.0599C25.9033 28.4266 23.1767 30.8532 20.49 33.3399C19.43 34.3399 17.41 35.6099 16.92 36.9999C16.43 38.3899 18.52 39.5999 19.53 40.4199Z" fill="#A1616A"/>
<path d="M44.02 35.0299C41.6959 36.5858 39.526 38.3606 37.54 40.3299C35.66 42.1799 33.88 44.3299 33.41 46.9399C33.22 47.9399 33.25 48.9999 33.09 50.0299C32.42 54.5099 28.53 57.7999 26.82 62.0299C26.3192 63.3227 25.9506 64.6628 25.72 66.0299C25.2407 68.6235 24.9797 71.2527 24.94 73.8899C24.94 76.4499 27.4 78.2099 28.32 80.5999C29.0845 82.9683 29.6301 85.4019 29.95 87.8699C30.9523 92.4715 32.3199 96.9858 34.04 101.37C37.42 110.7 48.37 136.5 51.75 145.84C62.1 143.24 89.6599 137.27 98.8199 131.84C101.88 130.02 77.62 109.46 80.89 108.04C81.2658 107.926 81.5885 107.681 81.8 107.35C81.9083 107.025 81.9083 106.674 81.8 106.35C78.54 92.0599 68.3101 80.3499 63.6801 66.3499C62.0701 61.5199 59.18 57.3999 56.98 52.7999C54.98 48.6399 53.93 44.0499 51.56 40.0999C51.1063 39.2866 50.5218 38.5535 49.83 37.9299C49.2323 37.48 48.5888 37.0945 47.91 36.7799C46.6 36.0799 45.34 35.6899 44.02 35.0299Z" fill="#514E7F"/>
<path d="M20.08 38.7899C29.027 38.7899 36.28 31.5369 36.28 22.5899C36.28 13.6429 29.027 6.38989 20.08 6.38989C11.133 6.38989 3.88 13.6429 3.88 22.5899C3.88 31.5369 11.133 38.7899 20.08 38.7899Z" fill="#A1616A"/>
<path d="M36.56 30.2C37.368 29.4561 38.3826 28.9747 39.4699 28.8193C40.5572 28.664 41.666 28.8421 42.65 29.33C43.2144 29.5728 43.6906 29.983 44.0143 30.5053C44.3381 31.0275 44.4936 31.6365 44.46 32.25L52.46 32.37C53.7392 32.3407 55.0176 32.4581 56.27 32.72C57.5306 32.9959 58.6553 33.7033 59.45 34.72C59.55 34.85 59.66 35 59.82 35.03C59.9539 35.0264 60.0833 34.981 60.19 34.9C61.4237 34.2725 62.815 34.0221 64.1901 34.18C68.5301 34.46 72.55 36.64 75.95 39.35C76.5753 39.7692 77.0625 40.3642 77.35 41.06C77.63 41.97 77.35 43.14 78.01 43.76C78.01 51.31 80.6 58.34 82.33 65.69C82.63 67 83.89 68.15 84.76 69.18C85.8378 70.3186 86.7167 71.6302 87.36 73.06C88.82 76.87 86.8 81.34 88.23 85.17C88.9536 86.7357 89.8817 88.1984 90.99 89.52C92.2771 91.1405 93.0904 93.0856 93.34 95.14C93.4 96.06 93.28 96.98 93.34 97.91C93.4259 99.1438 93.6473 100.365 94 101.55C94.58 103.76 95.2 105.97 95.84 108.17C96.84 111.73 98.2401 115.58 101.43 117.48C93.7201 118.79 85.6 120.06 78.25 117.39C77.2257 117.039 76.2535 116.552 75.36 115.94C72.71 114.05 71.43 110.81 70.29 107.76C69.01 104.33 67.71 100.85 67.45 97.2C67.4575 96.0329 67.2958 94.8708 66.97 93.75C66.22 91.75 64.24 90.56 62.42 89.46C60.3819 88.3396 58.5355 86.9016 56.95 85.2C56.161 84.3424 55.5568 83.3317 55.1749 82.2307C54.793 81.1297 54.6415 79.962 54.73 78.8C54.87 77.67 55.31 76.58 55.36 75.44C55.428 74.8725 55.3135 74.2979 55.033 73.7999C54.7525 73.3018 54.3206 72.9061 53.8 72.67C48.19 70.97 45.51 64.33 44.26 58.6C43.7182 55.6318 43.4769 52.6166 43.54 49.6L43.47 43.81C42.6947 43.107 42.0712 42.253 41.6378 41.3003C41.2045 40.3476 40.9704 39.3164 40.95 38.27C41.0402 37.6633 41.0402 37.0467 40.95 36.44C40.6856 35.6824 40.2472 34.9974 39.67 34.44C38.4184 33.1976 37.3691 31.767 36.56 30.2V30.2Z" fill="#464353"/>
<path d="M19.3 48.7299C19.12 50.5399 19.53 52.3899 19.12 54.1699C18.96 54.8499 18.69 55.4999 18.49 56.1699C17.886 58.7226 18.1499 61.4039 19.24 63.7899C20.3265 66.1546 21.6287 68.4142 23.13 70.5399C23.6452 71.2595 24.0654 72.0427 24.38 72.8699C24.6398 73.739 24.8008 74.6347 24.86 75.5399C25.2555 79.1586 25.8937 82.7467 26.77 86.2799C27.53 89.3599 28.52 92.4699 30.55 94.9099C30.9204 95.4446 31.4764 95.8225 32.11 95.9699C32.5695 95.9864 33.0261 95.8903 33.44 95.6899L37.58 94.1199C37.9442 94.0139 38.284 93.8372 38.58 93.5999C38.9582 93.1451 39.1636 92.5714 39.16 91.9799C39.45 88.6399 38.45 85.3299 37.34 82.1699C33.98 72.6299 29.52 63.4399 27.34 53.5699C26.73 50.8099 26.41 46.5699 24.4 44.4199C23.57 43.5199 23.85 43.8999 22.86 44.4199C22.3603 44.6446 21.876 44.9018 21.41 45.1899C20.815 45.5836 20.3164 46.1063 19.9511 46.7191C19.5858 47.332 19.3632 48.0192 19.3 48.7299V48.7299Z" fill="#464353"/>
<path d="M31.78 66.83C32.88 72.65 34.0033 78.4733 35.15 84.3L51.23 80.08C51.36 78.4 50.46 76.84 49.84 75.27C48.37 71.59 48.34 67.5 47.15 63.72C46.25 60.84 44.69 58.19 43.85 55.29C43.36 53.61 43.12 51.85 42.64 50.16C42.1199 48.4896 41.4884 46.8559 40.75 45.27C39.8426 42.9683 38.6643 40.783 37.24 38.76C35.18 39.53 32.99 40.42 31.82 42.27C31.2091 43.3243 30.8657 44.5123 30.82 45.73C30.54 49.35 31.82 52.98 31.41 56.56C30.9793 59.9809 31.1042 63.4489 31.78 66.83Z" fill="#6C63FF"/>
<path d="M51.5 144.42C52.4 147.86 51.09 151.42 50.03 154.84C48.4201 159.949 47.3214 165.204 46.75 170.53C46.6923 171.898 46.4189 173.248 45.94 174.53C45.3439 175.629 44.693 176.697 43.99 177.73C42.37 180.59 42.41 184.09 42.76 187.36C42.99 189.52 43.34 191.67 43.76 193.8C44.29 196.39 44.94 199.11 44.18 201.64C45.45 201.36 46.32 203 46.27 204.31C46.22 205.62 45.76 207.02 46.38 208.17C47.96 208.74 47.98 210.91 47.93 212.58C47.9537 215.493 48.3196 218.393 49.02 221.22C51.4067 232.68 53.94 244.11 56.62 255.51C62.41 257.31 69.1701 259.18 74.6901 256.69C75.2271 256.516 75.715 256.217 76.1133 255.817C76.5115 255.417 76.8086 254.928 76.98 254.39C77.0361 253.791 76.9611 253.187 76.76 252.62L74.14 243.1C73.355 240.855 73.0351 238.473 73.2 236.1C73.46 234.33 74.2 232.43 73.36 230.88C73.06 230.35 72.6 229.88 72.26 229.42C70.88 227.42 71.6 224.73 71.72 222.29C71.7602 221.744 71.7198 221.195 71.6 220.66C71.4123 220.036 71.1539 219.435 70.83 218.87C68.6723 214.672 67.6387 209.986 67.83 205.27C67.914 204.666 67.831 204.05 67.59 203.49C67.4188 203.266 67.2714 203.025 67.15 202.77C67.0416 202.33 67.0912 201.867 67.29 201.46C66.5041 200.886 65.795 200.214 65.1801 199.46C65.5528 199.217 65.8668 198.895 66.0996 198.516C66.3324 198.137 66.478 197.711 66.5259 197.269C66.5737 196.826 66.5226 196.379 66.3763 195.959C66.23 195.539 65.9923 195.157 65.6801 194.84C65.9601 194.785 66.2192 194.653 66.4287 194.46C66.6382 194.266 66.7898 194.018 66.8666 193.743C66.9433 193.468 66.9423 193.177 66.8634 192.903C66.7845 192.629 66.6311 192.382 66.42 192.19C66.08 191.95 65.64 191.85 65.42 191.51C65.05 191.01 65.35 190.3 65.65 189.76L67.25 186.87C68.44 184.73 68.71 182.08 69.99 179.99C71.7208 176.932 73.1347 173.705 74.21 170.36L78.77 157.66L81.87 160.35C82.9066 161.139 83.7739 162.129 84.42 163.26C84.8617 164.374 85.1379 165.546 85.24 166.74C86.38 173.64 90.73 179.62 92.34 186.43C92.5647 187.971 93.059 189.46 93.8 190.83C94.1131 191.227 94.3939 191.648 94.64 192.09C94.8678 192.763 94.986 193.469 94.99 194.18C95.1314 195.574 95.5717 196.921 96.281 198.129C96.9903 199.337 97.9518 200.377 99.1 201.18C100.62 202.18 102.55 202.95 103.35 204.61C103.524 205.123 103.759 205.613 104.05 206.07C104.79 206.96 106.39 207.07 106.71 208.18C106.88 208.81 106.55 209.55 106.91 210.1C107.105 210.351 107.364 210.545 107.66 210.66L112.13 212.9C117.13 215.39 119.65 221.1 123.34 225.29C124.614 226.645 125.737 228.133 126.69 229.73C128.28 232.57 129.02 236.14 131.69 237.97C132.408 238.346 133.062 238.832 133.63 239.41C134.48 240.52 134.17 242.08 134.24 243.48C134.31 244.88 135.39 246.54 136.72 246.12C136.25 247.811 136.25 249.599 136.72 251.29C142.555 250.988 148.12 248.734 152.52 244.89C153.82 243.75 155.08 242.3 155.09 240.58C155.105 240.281 155.039 239.985 154.9 239.72C154.642 239.38 154.296 239.117 153.9 238.96C149.73 236.7 148.47 231.46 146.38 227.2C144.53 223.45 141.81 220.2 139.5 216.72C134.5 209.22 131.16 200.15 123.65 195.19C122 194.1 120.08 193.13 119.26 191.33C118.909 190.28 118.616 189.212 118.38 188.13C118.241 187.596 117.941 187.117 117.52 186.76C117.1 186.402 116.58 186.182 116.03 186.13C116.505 184.508 116.687 182.816 116.57 181.13C116.613 180.404 116.528 179.677 116.32 178.98C116.038 178.233 115.669 177.521 115.22 176.86C113.262 173.532 112.281 169.72 112.39 165.86C112.45 163.86 112.8 161.86 112.2 159.95C111.9 158.95 111.38 158.12 111.01 157.19C110.463 155.527 110.173 153.79 110.15 152.04L109.74 145.45C109.684 143.256 109.399 141.075 108.89 138.94C107.5 133.83 106.17 112.42 101.46 110.01C96.75 107.6 88.71 124.07 83.46 124.4C81.1144 124.501 78.7964 124.946 76.58 125.72C73.07 127.04 70.12 129.5 67.25 131.91L57.53 140.07C55.6782 141.728 53.657 143.186 51.5 144.42V144.42Z" fill="#464353"/>
<path d="M4.86998 4.59998C6.00158 3.1811 7.435 2.03207 9.06615 1.23639C10.6973 0.440709 12.4852 0.0183756 14.3 1.35352e-06C17.9365 -0.00127411 21.5166 0.898899 24.72 2.62C25.6657 3.15657 26.6731 3.57631 27.72 3.87C29.44 4.22 31.34 3.75001 32.89 4.57001C34.95 5.66001 35.34 8.44001 35.16 10.76C34.98 13.08 34.55 15.62 35.78 17.61C36.2098 18.1805 36.6071 18.7747 36.97 19.39C37.3529 20.6376 37.3142 21.9766 36.86 23.2C36.1499 22.3989 35.4823 21.5611 34.86 20.69C34.14 19.9 32.91 19.36 32.03 19.95C31.15 20.54 31.15 21.63 31.11 22.6C31.07 23.57 30.81 24.74 29.89 25.06C29.515 25.1314 29.1275 25.094 28.7731 24.9522C28.4187 24.8105 28.1123 24.5703 27.89 24.26C26.32 22.34 26.95 19.26 25.4 17.34C24.51 16.24 23.04 15.71 22.22 14.56C21.58 13.66 21.42 12.49 20.86 11.56C20.3 10.63 18.99 9.87 18.11 10.56C17.8128 10.8505 17.5661 11.1884 17.38 11.56C16.8368 12.3361 16.0479 12.9063 15.1405 13.1785C14.2332 13.4507 13.2606 13.4089 12.38 13.06C11.7019 12.6536 10.972 12.3408 10.21 12.13C9.71443 12.1017 9.22078 12.212 8.78447 12.4487C8.34816 12.6854 7.98643 13.0391 7.73997 13.47C7.25961 14.3436 7.03442 15.3346 7.09001 16.33C7.09001 17.68 7.32997 19.16 6.54997 20.26C6.23025 20.6639 5.8366 21.0033 5.39 21.26C4.24 21.99 2.67001 22.48 1.59001 21.65C1.2328 21.3162 0.967091 20.8965 0.818283 20.4308C0.669475 19.9651 0.642499 19.4691 0.739975 18.99C0.947007 18.0363 1.21761 17.0975 1.54997 16.18C2.14997 14.06 1.37001 11.67 2.03001 9.66998C2.731 7.85364 3.68725 6.14647 4.86998 4.59998V4.59998Z" fill="#464353"/>
<path d="M13.55 52.9299C13.4466 53.4302 13.4989 53.9502 13.7 54.4199C13.905 54.7399 14.1825 55.0071 14.51 55.1999C16.8193 56.6294 19.441 57.477 22.15 57.6699C22.4995 57.6827 22.8416 57.7751 23.15 57.9399C23.4355 58.2052 23.6319 58.5523 23.7125 58.9336C23.793 59.3149 23.7537 59.7118 23.6 60.0699C23.2866 60.7823 23.1232 61.5516 23.12 62.3299C23.32 63.7599 25.01 64.4099 26.45 64.5899C28.4522 64.9975 30.5342 64.5947 32.24 63.4699C33.318 62.4865 34.1386 61.2539 34.63 59.8799C38.56 50.8799 39.94 40.8799 43.92 31.8799C44.2269 31.2961 44.4299 30.6633 44.52 30.0099C44.5616 29.6818 44.515 29.3485 44.3849 29.0444C44.2548 28.7403 44.046 28.4764 43.78 28.2799C43.04 27.8199 41.89 28.0799 41.39 27.3699C41.14 26.9999 41.17 26.5099 40.95 26.1299C40.49 25.3099 39.29 25.4099 38.46 24.9699C37.82 24.6199 37.37 23.9699 36.66 23.7799C36.3054 23.7606 35.9511 23.8237 35.6249 23.9642C35.2988 24.1047 35.0096 24.3189 34.78 24.5899C32.45 26.7699 31.22 29.8599 29.92 32.7799C27.9153 37.2535 25.5753 41.5691 22.92 45.6899C23.23 45.2099 21.44 41.5599 20.74 41.4199C19.52 41.1699 17.94 43.3199 17.28 44.1299C15.2284 46.6508 13.9348 49.7025 13.55 52.9299V52.9299Z" fill="#6C63FF"/>
<path d="M99.76 65.73H21.73V143.76H99.76V65.73Z" fill="white"/>
<path d="M99.13 108.71C97.7887 109.896 96.551 111.194 95.43 112.59C94.294 114.005 93.6921 115.775 93.73 117.59C93.7373 118.114 93.9048 118.624 94.2099 119.05C94.3678 119.258 94.5866 119.411 94.8359 119.488C95.0852 119.565 95.3524 119.562 95.6 119.48C95.8706 119.332 96.1034 119.123 96.28 118.87C97.0019 117.996 97.7695 117.162 98.5799 116.37C98.8799 116.08 99.26 115.77 99.66 115.88C99.8401 115.942 100.002 116.049 100.13 116.19C100.603 116.586 100.95 117.11 101.13 117.7C101.182 118.233 101.114 118.772 100.931 119.275C100.747 119.779 100.453 120.235 100.07 120.61C99.2906 121.355 98.6803 122.259 98.28 123.26C98.1694 123.532 98.1694 123.837 98.28 124.11C98.4144 124.306 98.5969 124.464 98.81 124.57C99.7935 125.105 100.882 125.419 101.999 125.492C103.116 125.565 104.236 125.393 105.28 124.99C106.67 124.44 107.87 123.48 109.28 122.99C109.89 122.829 110.483 122.607 111.05 122.33C111.454 122.064 111.801 121.72 112.071 121.318C112.34 120.916 112.527 120.465 112.62 119.99C112.796 119.037 112.834 118.063 112.73 117.1C112.551 113.356 111.736 109.67 110.32 106.2C110.245 105.975 110.111 105.774 109.93 105.62C109.73 105.502 109.503 105.436 109.27 105.43C107.52 105.25 104.64 104.35 102.95 105C102.356 105.321 101.846 105.776 101.46 106.33C101.07 106.68 99.13 108.25 99.13 108.71Z" fill="#A1616A"/>
<path d="M98.5301 107.16C98.5301 105.48 96.45 101.45 99.74 101.16C99.74 99.3799 97.2101 98.2599 97.6701 96.3799C97.8301 95.7399 98.3401 95.2299 98.4201 94.5899C98.6301 92.7599 95.33 91.7699 95.87 90.0099C96.07 89.3399 96.8 88.9299 96.96 88.2499C97.33 86.6699 94.5 85.9599 94.45 84.3399C94.45 83.7899 94.75 83.2699 94.73 82.7299C94.73 82.0399 94.1301 81.5199 93.8001 80.9299C92.9501 79.3999 93.3601 77.0299 91.8001 76.2499C92.8001 76.3299 93.1901 74.7999 92.7501 73.8599C92.3101 72.9199 91.45 72.1099 91.45 71.0699C91.5 70.6882 91.5 70.3016 91.45 69.9199C91.16 68.9199 89.5201 68.8499 89.2501 67.8499C89.2301 67.4735 89.2301 67.0963 89.2501 66.7199C89.1501 65.9399 88.35 65.4599 87.6 65.2299C86.826 65.1035 86.0809 64.8394 85.4001 64.4499C84.9201 64.0799 84.4 63.4499 83.85 63.7999C83.66 63.9099 83.5601 64.1299 83.4101 64.2999C82.8001 65.0099 81.63 64.6999 80.85 64.1699C78.56 62.6199 77.4301 59.8299 76.9301 57.1099C76.4301 54.3899 76.46 51.5799 75.86 48.8799C75.6729 48.0443 75.429 47.2224 75.1301 46.4199C74.6567 45.6437 74.2677 44.819 73.97 43.9599C73.85 42.3899 77.11 43.4599 78.35 43.6199C79.555 43.732 80.7469 43.9563 81.9101 44.2899C83.1472 44.7558 84.3588 45.2866 85.5401 45.8799C90.5401 48.0699 96.4601 48.3399 100.44 52.0099C101.75 53.2199 102.85 54.7999 104.54 55.3399C105.318 55.4962 106.085 55.6965 106.84 55.9399C108.73 56.8299 109.02 59.3299 110.05 61.1399C110.372 61.6171 110.656 62.1186 110.9 62.6399C111.095 63.2607 111.186 63.9094 111.17 64.5599L111.31 69.3099C111.54 77.3099 111.78 85.2399 110.93 93.1499C110.65 95.7499 110.26 98.4399 111.02 100.95C111.22 101.63 111.51 102.28 111.68 102.95C111.842 103.764 111.929 104.59 111.94 105.42L112.05 108.49C112.091 108.737 112.037 108.99 111.9 109.2C111.785 109.292 111.651 109.358 111.507 109.393C111.364 109.428 111.215 109.43 111.07 109.4C106.78 109.02 102.46 106.6 98.4101 108.06" fill="#464353"/>
<path d="M18.79 94.6299C18.6003 94.7229 18.4357 94.86 18.31 95.0298C17.8748 95.6172 17.64 96.3289 17.64 97.0598C17.64 97.7908 17.8748 98.5025 18.31 99.0898C18.4123 99.2085 18.4934 99.3438 18.55 99.4898C18.5787 99.7234 18.5369 99.9602 18.43 100.17C18.222 100.572 18.1403 101.028 18.1956 101.478C18.2509 101.927 18.4406 102.35 18.74 102.69C19.05 102.95 19.47 103.08 19.67 103.42C20.02 104 19.53 104.74 19.61 105.42C19.71 106.31 20.76 106.75 21.61 106.86C21.9527 106.941 22.3102 106.936 22.6505 106.845C22.9908 106.755 23.3033 106.581 23.56 106.34C23.7317 106.077 23.8231 105.769 23.8231 105.455C23.8231 105.141 23.7317 104.833 23.56 104.57C23.2118 104.047 22.7631 103.598 22.24 103.25C22.7231 103.225 23.1808 103.026 23.5283 102.689C23.8758 102.353 24.0895 101.902 24.13 101.42C24.1653 100.942 24.0793 100.464 23.8799 100.028C23.6806 99.593 23.3745 99.2151 22.99 98.9298C22.81 98.7798 22.59 98.6298 22.54 98.3898C22.49 98.1498 22.73 97.8198 22.95 97.5898C23.95 96.5898 24.72 94.1398 22.84 93.5898C22.1748 93.4736 21.4922 93.5043 20.84 93.6798C20.36 93.8298 20.36 94.1199 19.99 94.3199C19.62 94.5199 19.21 94.4199 18.79 94.6299Z" fill="#A1616A"/>
<path opacity="0.1" d="M38.44 25.5599C37.948 25.5704 37.4645 25.6908 37.025 25.9122C36.5855 26.1337 36.2012 26.4507 35.9 26.8399C35.2718 27.8685 34.9077 29.0365 34.84 30.2399C34.2289 34.0865 32.87 37.776 30.84 41.0999" fill="black"/>
<path opacity="0.1" d="M41.94 28.2999C41.2599 28.313 40.5951 28.5046 40.0124 28.8557C39.4297 29.2067 38.9495 29.7048 38.62 30.2999C38.1629 31.3785 37.8794 32.5227 37.78 33.6899C37.1939 36.2717 36.0581 38.6968 34.45 40.7999" fill="black"/>
<path d="M85.82 94.2999C85.82 90.0799 82.71 86.6799 78.82 86.6799C73.61 86.4299 68.31 86.3398 62.89 86.3398H61.2C55.79 86.3398 50.47 86.4299 45.27 86.6799C41.44 86.6799 38.33 90.0899 38.33 94.3199C38.09 97.6699 37.99 101.01 38 104.32C38.01 107.63 38.09 111.01 38.32 114.32C38.32 118.55 41.43 121.98 45.26 121.98C50.72 122.23 56.33 122.34 62.03 122.34C67.73 122.34 73.3301 122.24 78.8101 121.98C82.6501 121.98 85.8101 118.55 85.8101 114.32C86.0301 110.97 86.14 107.63 86.13 104.27C86.12 100.91 86.04 97.5898 85.82 94.2698V94.2999ZM57.49 113.57V95.1099L71.11 104.33L57.49 113.57Z" fill="#6C63FF"/>
</svg>
