<svg width="165" height="489" viewBox="0 0 165 489" fill="none" xmlns="http://www.w3.org/2000/svg">
<path d="M95.8242 68.6306C95.8242 68.6306 86.5 65.8736 84.5 68.8736C82.5 71.8736 87.2267 93.6213 87.2267 93.6213L107.773 94.8699L100.602 76.7634L95.8242 68.6306Z" fill="#2F2E41"/>
<path d="M23.9441 247.221C23.9441 247.221 42.6388 288.263 28.2418 286.974C13.8447 285.684 8.25781 247.221 8.25781 247.221H23.9441Z" fill="#A0616A"/>
<path d="M146.211 242.945C146.211 242.945 138.01 287.292 151.667 282.556C165.323 277.819 161.431 239.147 161.431 239.147L146.211 242.945Z" fill="#A0616A"/>
<path d="M91.8466 58.3401C91.8466 58.3401 91.6317 78.9687 99.5823 80.0431C107.533 81.1175 95.0698 92.0764 95.0698 92.0764L80.8877 94.8699L60.474 93.3657L51.449 81.7621C51.449 81.7621 67.3502 74.2413 60.474 50.8192L91.8466 58.3401Z" fill="#A0616A"/>
<path opacity="0.1" d="M91.8466 58.3401C91.8466 58.3401 91.6317 78.9687 99.5823 80.0431C107.533 81.1175 95.0698 92.0764 95.0698 92.0764L80.8877 94.8699L60.474 93.3657L51.449 81.7621C51.449 81.7621 67.3502 74.2413 60.474 50.8192L91.8466 58.3401Z" fill="black"/>
<path d="M128.376 232.824C128.376 232.824 138.476 254.527 130.525 322.644C130.525 322.644 132.889 346.711 130.955 351.223C129.021 355.736 113.12 416.977 113.12 416.977C113.12 416.977 92.7061 421.489 89.9127 407.952C89.9127 407.952 92.7062 388.613 92.4913 385.604C92.2764 382.596 97.0038 349.719 97.0038 349.719L87.3341 286.114L80.0281 343.487C80.0281 343.487 80.0281 360.033 77.6644 363.686C75.3007 367.339 77.6644 440.829 77.6644 440.829C77.6644 440.829 84.3257 452.003 74.2263 452.217C64.1269 452.432 55.1019 452.003 54.2423 444.911C53.3828 437.82 52.953 430.729 50.8042 426.432C48.6554 422.134 45.862 372.926 46.5066 355.736C47.1513 338.545 32.3244 250.229 37.0518 240.989C41.7792 231.749 128.376 232.824 128.376 232.824Z" fill="#2F2E41"/>
<path d="M80.8877 66.0758C95.1288 66.0758 106.673 54.5311 106.673 40.29C106.673 26.049 95.1288 14.5043 80.8877 14.5043C66.6466 14.5043 55.102 26.049 55.102 40.29C55.102 54.5311 66.6466 66.0758 80.8877 66.0758Z" fill="#A0616A"/>
<path d="M55.1019 82.1919C55.1019 82.1919 70.7883 93.7954 93.5657 84.5555C93.5657 84.5555 101.087 80.9025 100.442 75.3156C99.7972 69.7287 116.128 120.226 116.128 120.226L132.674 208.112L131.815 243.997C131.815 243.997 124.509 240.344 101.731 248.51C78.9538 256.675 41.7793 239.27 41.7793 239.27L43.0686 147.086L44.3579 93.3657L47.796 81.5472C47.796 81.5472 49.515 78.324 55.1019 82.1919Z" fill="#F2F2F2"/>
<path d="M92.5632 67.7668C92.5632 67.7668 96.3592 67.1501 100.012 72.9519C103.665 78.7537 112.26 82.4067 112.26 82.4067C112.26 82.4067 133.104 83.696 136.112 94.8698C139.121 106.044 146.641 121.3 150.294 149.45C153.947 177.599 161.253 222.509 162.328 226.162C163.402 229.815 160.824 240.989 163.832 244.427C166.84 247.865 142.559 247.865 142.559 247.865C142.559 247.865 140.41 230.245 138.906 230.245C137.401 230.245 137.831 242.064 139.335 250.659C140.84 259.254 128.376 250.659 128.376 250.659C128.376 250.659 118.707 211.335 109.467 175.88C100.227 140.425 94.855 120.87 96.574 112.92C98.293 104.969 103.02 82.1919 99.5823 80.043C96.1442 77.8942 92.5632 67.7668 92.5632 67.7668Z" fill="#2F2E41"/>
<path d="M61.5755 67.7478C61.5755 67.7478 55.9615 70.8031 41.7793 80.9026C27.5971 91.002 17.9275 98.7377 17.9275 98.7377C17.9275 98.7377 12.3406 103.035 8.90248 128.606C5.46439 154.177 -2.27136 220.36 0.736987 228.741C3.74534 237.121 4.81974 242.063 3.74533 247.006C2.67092 251.948 26.3079 251.733 26.7376 250.659C27.1674 249.584 26.093 230.03 27.1674 229.6C28.2418 229.171 34.0436 241.204 35.118 251.303C36.1924 261.403 48.6555 269.353 51.449 269.353C54.2425 269.353 68.6395 211.121 68.8544 171.368C69.0693 131.614 64.127 98.093 60.474 93.3656C56.821 88.6382 61.5755 67.7478 61.5755 67.7478Z" fill="#2F2E41"/>
<path d="M99.3675 418.911C99.3675 418.911 101.087 414.183 107.103 415.688C113.12 417.192 117.203 411.82 117.203 411.82C117.203 411.82 120.426 411.39 118.277 415.473C116.128 419.555 114.409 422.349 114.409 422.349C114.409 422.349 127.302 451.788 118.922 458.879C110.541 465.97 100.872 461.672 100.872 461.672C100.872 461.672 91.4169 455.011 91.8467 437.391C91.8467 437.391 91.4169 431.804 86.2598 422.779C81.1026 413.754 77.2348 400.001 83.4663 397.423C89.6979 394.844 91.3018 394.748 91.3018 394.748C91.3018 394.748 88.3858 408.085 95.918 412.746L99.3675 418.911Z" fill="#3F3D56"/>
<path d="M59.3996 452.217C59.3996 452.217 54.2424 442.548 62.8377 441.473C71.4329 440.399 80.6728 439.754 80.2431 444.267C79.8133 448.779 78.7389 455.655 78.7389 455.655L80.2431 460.598C80.2431 460.598 80.6728 472.846 82.177 474.35C83.6811 475.854 91.8466 488.747 74.4413 488.747C57.0359 488.747 51.8787 486.813 53.3829 482.73C54.8871 478.648 55.3168 458.449 55.3168 458.449L59.3996 452.217Z" fill="#3F3D56"/>
<path d="M72.7222 19.6614C72.7222 19.6614 84.7556 22.8846 90.9871 24.1739C97.2187 25.4632 96.574 21.8102 96.574 21.8102C96.574 21.8102 104.74 22.8847 104.31 22.0251C103.88 21.1656 107.748 16.6531 103.235 11.4959C98.7229 6.33875 100.012 2.47093 100.012 2.47093H96.1443L95.0699 0.966781H89.0532C89.0532 0.966781 84.5407 -0.752269 72.7222 0.966781C60.9037 2.68583 44.7876 3.11559 43.4983 10.2067C42.2091 17.2978 35.5477 26.1079 37.9114 30.1906C40.2751 34.2734 53.8126 51.0341 55.1019 58.1252C56.3912 65.2162 62.4113 66.7918 62.1947 62.351C61.9781 57.9103 55.9615 42.4388 61.1186 41.7942C66.2758 41.1496 75.0859 28.0418 72.7222 19.6614Z" fill="#2F2E41"/>
</svg>
