<svg width="1108" height="732" viewBox="0 0 1108 732" fill="none" xmlns="http://www.w3.org/2000/svg">
<path d="M554 731.18C859.966 731.18 1108 720.659 1108 707.68C1108 694.701 859.966 684.18 554 684.18C248.034 684.18 0 694.701 0 707.68C0 720.659 248.034 731.18 554 731.18Z" fill="#3F3D56"/>
<path opacity="0.1" d="M554 731.18C859.966 731.18 1108 720.659 1108 707.68C1108 694.701 859.966 684.18 554 684.18C248.034 684.18 0 694.701 0 707.68C0 720.659 248.034 731.18 554 731.18Z" fill="black"/>
<path d="M554 718.18C859.966 718.18 1108 707.659 1108 694.68C1108 681.701 859.966 671.18 554 671.18C248.034 671.18 0 681.701 0 694.68C0 707.659 248.034 718.18 554 718.18Z" fill="#3F3D56"/>
<path d="M85 686.32C82 680.81 85.4 674.06 89.28 669.14C93.16 664.22 97.89 659.14 97.79 652.85C97.65 643.85 88.09 638.54 80.46 633.77C74.7987 630.227 69.5758 626.028 64.9 621.26C62.9456 619.422 61.3278 617.256 60.12 614.86C58.54 611.34 58.59 607.34 58.69 603.48C59.0233 590.64 59.6567 577.813 60.59 565" stroke="#3F3D56" stroke-width="4" stroke-miterlimit="10"/>
<path d="M46.11 564.29C46.218 561.941 46.9159 559.657 48.1393 557.649C49.3627 555.641 51.0722 553.973 53.11 552.8L56.25 559.01L56.16 551.49C57.6574 551.044 59.2195 550.855 60.78 550.93C63.5431 551.065 66.2042 552.016 68.4274 553.662C70.6506 555.308 72.3363 557.576 73.2716 560.18C74.2069 562.783 74.35 565.605 73.6828 568.29C73.0156 570.975 71.568 573.402 69.5227 575.264C67.4774 577.127 64.9261 578.342 62.1909 578.756C59.4557 579.17 56.6591 578.764 54.1543 577.59C51.6495 576.416 49.5486 574.526 48.1169 572.159C46.6852 569.792 45.9869 567.054 46.11 564.29V564.29Z" fill="#6C63FF"/>
<path d="M71.14 659.29C72.5346 662.066 74.8128 664.299 77.616 665.638C80.4191 666.977 83.5879 667.345 86.6235 666.685C89.659 666.026 92.3889 664.375 94.3834 661.993C96.3778 659.612 97.5235 656.634 97.64 653.53C97.7398 651.59 97.4298 649.652 96.73 647.84C95.7241 645.16 93.9206 642.852 91.5626 641.228C89.2047 639.605 86.4056 638.743 83.5427 638.759C80.6799 638.776 77.8908 639.669 75.5516 641.32C73.2123 642.97 71.4353 645.298 70.46 647.99L79.23 655.12L69.59 652.88C69.5846 655.11 70.1163 657.309 71.14 659.29V659.29Z" fill="#6C63FF"/>
<path d="M78.07 632.04C81.5672 632.305 85.0363 631.247 87.791 629.076C90.5457 626.905 92.3854 623.78 92.9461 620.318C93.5067 616.856 92.7475 613.309 90.8187 610.38C88.8899 607.451 85.9319 605.353 82.53 604.5L82.6 610.29L79.42 604C75.7003 603.826 72.064 605.137 69.311 607.645C66.558 610.152 64.9137 613.65 64.74 617.37C64.5663 621.09 65.8773 624.726 68.3847 627.479C70.892 630.232 74.3903 631.876 78.11 632.05L78.07 632.04Z" fill="#6C63FF"/>
<path d="M44 609.37C45.8385 609.457 47.6761 609.18 49.4078 608.557C51.1395 607.933 52.7315 606.975 54.0928 605.736C55.4541 604.498 56.5581 603.003 57.3417 601.337C58.1254 599.672 58.5733 597.869 58.66 596.03C58.7467 594.192 58.4704 592.354 57.8469 590.622C57.2234 588.891 56.2649 587.299 55.0262 585.937C53.7875 584.576 52.2927 583.472 50.6273 582.688C48.9619 581.905 47.1585 581.457 45.32 581.37C42.6954 581.24 40.0876 581.857 37.8 583.15L40.28 589.95L35.17 585.05C32.437 587.553 30.8079 591.038 30.64 594.74C30.5722 596.034 30.6935 597.331 31 598.59C31.698 601.557 33.3452 604.215 35.6915 606.161C38.0378 608.107 40.955 609.233 44 609.37V609.37Z" fill="#6C63FF"/>
<path opacity="0.1" d="M48 568.03C51.24 568.39 54.39 569.4 57.64 569.6C60.89 569.8 64.46 569.02 66.52 566.5C67.63 565.13 68.18 563.41 69.11 561.93C70.0007 560.548 71.2161 559.405 72.65 558.6C73.4968 560.37 73.962 562.298 74.0156 564.26C74.0691 566.221 73.7097 568.172 72.9607 569.986C72.2117 571.799 71.0898 573.435 69.6679 574.787C68.2459 576.14 66.5556 577.178 64.7065 577.834C62.8575 578.491 60.8911 578.752 58.9348 578.6C56.9785 578.447 55.0761 577.886 53.3509 576.951C51.6257 576.016 50.1163 574.729 48.9206 573.173C47.7248 571.617 46.8695 569.828 46.41 567.92C46.94 567.94 47.47 567.98 48 568.03Z" fill="black"/>
<path opacity="0.1" d="M44 609.37C46.4205 609.493 48.8314 608.985 50.9969 607.897C53.1623 606.808 55.0081 605.176 56.3537 603.161C57.6992 601.145 58.4984 598.814 58.673 596.397C58.8477 593.98 58.3918 591.558 57.35 589.37C56.2359 590.122 55.2783 591.083 54.53 592.2C53.53 593.71 52.92 595.45 51.75 596.84C49.56 599.41 45.83 600.25 42.44 600.09C39.05 599.93 35.78 598.98 32.44 598.67C31.97 598.67 31.5 598.59 31.03 598.58C31.7247 601.544 33.3666 604.201 35.7071 606.148C38.0475 608.095 40.9589 609.226 44 609.37V609.37Z" fill="black"/>
<path opacity="0.1" d="M78.07 632.04C80.4688 632.163 82.859 631.667 85.0107 630.6C87.1623 629.532 89.0032 627.929 90.3561 625.944C91.709 623.959 92.5286 621.66 92.7359 619.267C92.9432 616.874 92.5314 614.468 91.54 612.28C90.374 613.038 89.3571 614.004 88.54 615.13C87.45 616.67 86.77 618.44 85.54 619.86C83.18 622.5 79.2 623.43 75.61 623.34C72.02 623.25 68.79 622.41 65.33 622.15C66.1745 624.911 67.8521 627.343 70.1328 629.114C72.4135 630.884 75.1858 631.906 78.07 632.04V632.04Z" fill="black"/>
<path opacity="0.1" d="M71.14 659.29C72.5346 662.066 74.8128 664.299 77.616 665.638C80.4191 666.977 83.5879 667.345 86.6235 666.685C89.659 666.026 92.3889 664.375 94.3834 661.993C96.3778 659.612 97.5235 656.634 97.64 653.53C97.7399 651.591 97.4298 649.652 96.73 647.84C95.5738 648.596 94.5358 649.52 93.65 650.58C92.31 652.21 91.44 654.05 89.89 655.58C87.02 658.4 82.39 659.58 78.27 659.67C75.888 659.68 73.5075 659.553 71.14 659.29V659.29Z" fill="black"/>
<path d="M106.19 679.98C106.19 679.98 95.11 679.64 91.78 677.26C88.45 674.88 74.78 672.04 73.91 675.86C73.04 679.68 57.26 694.86 69.77 694.92C82.28 694.98 98.83 692.92 102.16 690.92C105.49 688.92 106.19 679.98 106.19 679.98Z" fill="#656380"/>
<path opacity="0.2" d="M69.54 693.59C82.05 693.69 98.6 691.59 101.94 689.59C104.47 688.05 105.48 682.5 105.82 679.94H106.19C106.19 679.94 105.49 688.87 102.19 690.94C98.89 693.01 82.3 695.02 69.8 694.94C66.19 694.94 64.94 693.63 65.01 691.72C65.48 692.85 66.86 693.59 69.54 693.59Z" fill="black"/>
<path d="M1055 695.32C1052 689.81 1055.4 683.06 1059.28 678.14C1063.16 673.22 1067.89 668.14 1067.79 661.85C1067.65 652.85 1058.09 647.54 1050.46 642.77C1044.8 639.227 1039.58 635.028 1034.9 630.26C1032.95 628.422 1031.33 626.256 1030.12 623.86C1028.54 620.34 1028.59 616.34 1028.69 612.48C1029.02 599.64 1029.65 586.813 1030.59 574" stroke="#3F3D56" stroke-width="4" stroke-miterlimit="10"/>
<path d="M1016.11 573.29C1016.22 570.941 1016.92 568.657 1018.14 566.649C1019.36 564.641 1021.07 562.973 1023.11 561.8L1026.25 568.01L1026.16 560.49C1027.66 560.044 1029.22 559.855 1030.78 559.93C1033.54 560.067 1036.2 561.019 1038.42 562.667C1040.65 564.314 1042.33 566.583 1043.26 569.186C1044.2 571.79 1044.34 574.611 1043.67 577.295C1043 579.979 1041.55 582.405 1039.51 584.267C1037.46 586.129 1034.91 587.343 1032.18 587.756C1029.44 588.169 1026.65 587.763 1024.14 586.588C1021.64 585.414 1019.54 583.524 1018.11 581.158C1016.68 578.791 1015.98 576.053 1016.1 573.29H1016.11Z" fill="#6C63FF"/>
<path d="M1041.14 668.29C1042.53 671.066 1044.81 673.299 1047.62 674.638C1050.42 675.977 1053.59 676.345 1056.62 675.685C1059.66 675.026 1062.39 673.375 1064.38 670.993C1066.38 668.612 1067.52 665.634 1067.64 662.53C1067.74 660.59 1067.43 658.652 1066.73 656.84C1065.72 654.16 1063.92 651.852 1061.56 650.228C1059.2 648.605 1056.41 647.743 1053.54 647.759C1050.68 647.776 1047.89 648.669 1045.55 650.32C1043.21 651.97 1041.44 654.298 1040.46 656.99L1049.23 664.12L1039.59 661.88C1039.58 664.11 1040.12 666.309 1041.14 668.29V668.29Z" fill="#6C63FF"/>
<path d="M1048.07 641.04C1051.57 641.305 1055.04 640.247 1057.79 638.076C1060.55 635.905 1062.39 632.78 1062.95 629.318C1063.51 625.856 1062.75 622.309 1060.82 619.38C1058.89 616.451 1055.93 614.353 1052.53 613.5L1052.6 619.29L1049.42 613C1045.7 612.826 1042.06 614.137 1039.31 616.645C1036.56 619.152 1034.91 622.65 1034.74 626.37C1034.57 630.09 1035.88 633.726 1038.38 636.479C1040.89 639.232 1044.39 640.876 1048.11 641.05L1048.07 641.04Z" fill="#6C63FF"/>
<path d="M1014 618.37C1017.71 618.545 1021.34 617.238 1024.09 614.736C1026.84 612.235 1028.49 608.743 1028.66 605.03C1028.84 601.317 1027.53 597.687 1025.03 594.937C1022.52 592.188 1019.03 590.545 1015.32 590.37C1012.7 590.24 1010.09 590.857 1007.8 592.15L1010.28 598.95L1005.17 594.05C1002.44 596.553 1000.81 600.038 1000.64 603.74C1000.57 605.034 1000.69 606.331 1001 607.59C1001.7 610.557 1003.35 613.215 1005.69 615.161C1008.04 617.107 1010.96 618.233 1014 618.37V618.37Z" fill="#6C63FF"/>
<path opacity="0.1" d="M1018 577.03C1021.24 577.39 1024.39 578.4 1027.64 578.6C1030.89 578.8 1034.46 578.02 1036.52 575.5C1037.63 574.13 1038.18 572.41 1039.11 570.93C1040 569.548 1041.22 568.405 1042.65 567.6C1043.5 569.37 1043.96 571.298 1044.02 573.26C1044.07 575.221 1043.71 577.172 1042.96 578.986C1042.21 580.799 1041.09 582.435 1039.67 583.787C1038.25 585.14 1036.56 586.178 1034.71 586.834C1032.86 587.491 1030.89 587.752 1028.93 587.6C1026.98 587.447 1025.08 586.886 1023.35 585.951C1021.63 585.016 1020.12 583.729 1018.92 582.173C1017.72 580.617 1016.87 578.828 1016.41 576.92C1016.94 576.94 1017.47 576.98 1018 577.03Z" fill="black"/>
<path opacity="0.1" d="M1014 618.37C1016.42 618.493 1018.83 617.985 1021 616.897C1023.16 615.808 1025.01 614.176 1026.35 612.161C1027.7 610.145 1028.5 607.814 1028.67 605.397C1028.85 602.98 1028.39 600.558 1027.35 598.37C1026.24 599.122 1025.28 600.083 1024.53 601.2C1023.53 602.71 1022.92 604.45 1021.75 605.84C1019.56 608.41 1015.83 609.25 1012.44 609.09C1009.05 608.93 1005.78 607.98 1002.44 607.67C1001.97 607.67 1001.5 607.59 1001.03 607.58C1001.72 610.544 1003.37 613.201 1005.71 615.148C1008.05 617.095 1010.96 618.226 1014 618.37V618.37Z" fill="black"/>
<path opacity="0.1" d="M1048.07 641.04C1050.47 641.163 1052.86 640.667 1055.01 639.6C1057.16 638.532 1059 636.929 1060.36 634.944C1061.71 632.959 1062.53 630.66 1062.74 628.267C1062.94 625.874 1062.53 623.468 1061.54 621.28C1060.37 622.038 1059.36 623.004 1058.54 624.13C1057.45 625.67 1056.77 627.44 1055.54 628.86C1053.18 631.5 1049.2 632.43 1045.61 632.34C1042.02 632.25 1038.79 631.41 1035.33 631.15C1036.17 633.911 1037.85 636.343 1040.13 638.114C1042.41 639.884 1045.19 640.906 1048.07 641.04V641.04Z" fill="black"/>
<path opacity="0.1" d="M1041.14 668.29C1042.53 671.066 1044.81 673.299 1047.62 674.638C1050.42 675.977 1053.59 676.345 1056.62 675.685C1059.66 675.026 1062.39 673.375 1064.38 670.993C1066.38 668.612 1067.52 665.634 1067.64 662.53C1067.74 660.591 1067.43 658.652 1066.73 656.84C1065.57 657.596 1064.54 658.52 1063.65 659.58C1062.31 661.21 1061.44 663.05 1059.89 664.58C1057.02 667.4 1052.39 668.58 1048.27 668.67C1045.89 668.68 1043.51 668.553 1041.14 668.29V668.29Z" fill="black"/>
<path d="M1076.19 688.98C1076.19 688.98 1065.11 688.64 1061.78 686.26C1058.45 683.88 1044.78 681.04 1043.91 684.86C1043.04 688.68 1027.26 703.86 1039.77 703.92C1052.28 703.98 1068.83 701.92 1072.16 699.92C1075.49 697.92 1076.19 688.98 1076.19 688.98Z" fill="#656380"/>
<path opacity="0.2" d="M1039.54 702.59C1052.05 702.69 1068.6 700.59 1071.94 698.59C1074.47 697.05 1075.48 691.5 1075.82 688.94H1076.19C1076.19 688.94 1075.49 697.87 1072.19 699.94C1068.89 702.01 1052.3 704.02 1039.8 703.94C1036.19 703.94 1034.94 702.63 1035.01 700.72C1035.48 701.85 1036.86 702.59 1039.54 702.59Z" fill="black"/>
<path d="M745.57 331.15C738.957 328.883 732.29 326.783 725.57 324.85C726.677 320.323 727.707 315.773 728.66 311.2C743.8 237.69 733.9 178.47 700.09 158.98C667.67 140.28 614.65 159.78 561.09 206.37C555.81 210.983 550.653 215.717 545.62 220.57C542.24 217.337 538.807 214.167 535.32 211.06C479.21 161.23 423 140.24 389.18 159.79C356.79 178.54 347.18 234.21 360.83 303.88C362.163 310.78 363.693 317.64 365.42 324.46C357.47 326.72 349.78 329.13 342.42 331.7C276.63 354.59 234.61 390.59 234.61 427.88C234.61 466.39 279.72 505.02 348.25 528.44C353.81 530.327 359.41 532.08 365.05 533.7C363.223 541.033 361.597 548.427 360.17 555.88C347.17 624.34 357.33 678.7 389.63 697.33C423 716.59 479 696.79 533.52 649.13C537.83 645.36 542.15 641.36 546.52 637.18C551.973 642.44 557.57 647.547 563.31 652.5C616.13 697.95 668.31 716.31 700.57 697.62C733.9 678.33 744.73 619.93 730.67 548.89C729.603 543.463 728.36 537.927 726.94 532.28C730.88 531.12 734.733 529.917 738.5 528.67C809.74 505.07 856.1 466.91 856.1 427.88C856.1 390.45 812.72 354.26 745.6 331.15H745.57Z" fill="#53C1DE"/>
<path d="M730.12 503.47C726.72 504.6 723.24 505.68 719.68 506.74C710.994 479.811 700.48 453.506 688.21 428.01C700.012 402.853 710.118 376.936 718.46 350.43C724.81 352.27 730.99 354.21 736.93 356.26C794.44 376.05 829.52 405.32 829.52 427.88C829.52 451.88 791.63 483.09 730.12 503.47ZM704.6 554.05C710.82 585.46 711.7 613.86 707.6 636.05C703.9 656 696.46 669.3 687.26 674.63C667.67 685.96 625.79 671.23 580.62 632.36C575.44 627.9 570.23 623.15 564.99 618.11C583.822 597.261 601.225 575.164 617.08 551.97C645.401 549.57 673.524 545.227 701.25 538.97C702.517 544.09 703.64 549.09 704.62 553.97L704.6 554.05ZM446.48 672.69C427.34 679.45 412.1 679.64 402.89 674.33C383.29 663.02 375.14 619.33 386.26 560.83C387.593 553.917 389.103 547.04 390.79 540.2C418.401 546.128 446.382 550.181 474.54 552.33C490.859 575.443 508.681 597.457 527.89 618.23C524.03 621.97 520.083 625.607 516.05 629.14C491.94 650.22 467.77 665.14 446.48 672.69V672.69ZM356.84 503.32C326.53 492.96 301.51 479.5 284.35 464.82C268.94 451.62 261.16 438.51 261.16 427.88C261.16 405.25 294.9 376.38 351.16 356.77C358.227 354.31 365.357 352.067 372.55 350.04C380.907 376.839 391.025 403.056 402.84 428.52C390.878 454.349 380.636 480.94 372.18 508.12C367.02 506.647 361.907 505.047 356.84 503.32ZM386.89 298.78C375.21 239.09 382.96 194.06 402.48 182.78C423.27 170.78 469.24 187.9 517.7 230.93C520.8 233.68 523.91 236.56 527.02 239.53C507.948 260.176 490.266 282.064 474.09 305.05C446.197 307.551 418.496 311.857 391.16 317.94C389.567 311.593 388.143 305.21 386.89 298.79V298.78ZM655 364.97C648.927 354.477 642.63 344.117 636.11 333.89C655.94 336.4 674.93 339.72 692.77 343.8C687.045 361.96 680.407 379.82 672.88 397.31C667.14 386.41 661.18 375.63 655 364.97ZM545.64 258.5C558.563 272.59 570.769 287.322 582.21 302.64C557.737 301.487 533.253 301.487 508.76 302.64C520.83 286.72 533.2 271.92 545.64 258.51V258.5ZM435.64 365.15C429.54 375.73 423.69 386.443 418.09 397.29C410.36 378.96 403.75 360.93 398.35 343.52C416.08 339.52 434.99 336.31 454.69 333.84C448.077 344.133 441.72 354.57 435.62 365.15H435.64ZM455.25 523.8C436.022 521.713 416.913 518.639 398 514.59C403.49 496.88 410.25 478.46 418.15 459.73C423.77 470.59 429.64 481.31 435.76 491.89C441.987 502.683 448.477 513.32 455.23 523.8H455.25ZM546.39 599.13C533.79 585.59 521.24 570.59 509 554.38C520.9 554.853 533.02 555.09 545.36 555.09C558.027 555.09 570.53 554.81 582.87 554.25C571.479 569.825 559.296 584.804 546.37 599.13H546.39ZM673.08 458.78C680.997 476.625 687.979 494.869 694 513.44C674.853 517.748 655.493 521.049 636 523.33C642.567 512.91 648.927 502.367 655.08 491.7C661.333 480.86 667.333 469.887 673.08 458.78ZM632.08 478.44C622.667 494.787 612.73 510.82 602.27 526.54C583.83 527.86 564.78 528.54 545.36 528.54C525.94 528.54 507.21 527.94 489.09 526.76C478.363 511.093 468.233 495.037 458.7 478.59C449.167 462.143 440.33 445.45 432.19 428.51C440.37 411.49 449.18 394.79 458.62 378.41C468.047 362.037 478.09 346.037 488.75 330.41C507.24 329.01 526.18 328.28 545.34 328.28C564.5 328.28 583.56 329.02 602.03 330.42C612.57 346 622.57 361.937 632.03 378.23C641.49 394.523 650.42 411.147 658.82 428.1C650.52 445.18 641.617 461.947 632.11 478.4L632.08 478.44ZM686.85 181.98C707.66 193.98 715.75 242.38 702.68 305.85C701.82 309.977 700.887 314.093 699.88 318.2C672.504 311.994 644.746 307.607 616.79 305.07C600.77 282.064 583.22 260.161 564.26 239.51C568.927 235.017 573.69 230.647 578.55 226.4C624.43 186.47 667.31 170.71 686.85 181.98Z" fill="#222222"/>
<path d="M545.34 372.38C556.317 372.38 567.047 375.635 576.174 381.733C585.301 387.832 592.415 396.5 596.615 406.641C600.816 416.782 601.915 427.941 599.774 438.707C597.632 449.473 592.346 459.362 584.584 467.124C576.823 474.886 566.933 480.172 556.168 482.313C545.402 484.455 534.242 483.356 524.101 479.155C513.96 474.955 505.292 467.841 499.193 458.714C493.095 449.587 489.84 438.857 489.84 427.88C489.839 420.591 491.273 413.374 494.062 406.639C496.851 399.905 500.939 393.786 506.093 388.633C511.247 383.479 517.365 379.391 524.099 376.602C530.834 373.813 538.051 372.379 545.34 372.38" fill="#53C1DE"/>
<path d="M559.26 20.4C559.26 23.6832 558.286 26.8926 556.462 29.6225C554.638 32.3523 552.046 34.48 549.013 35.7364C545.979 36.9928 542.642 37.3215 539.422 36.681C536.201 36.0405 533.244 34.4595 530.922 32.138C528.6 29.8164 527.019 26.8586 526.379 23.6385C525.738 20.4184 526.067 17.0807 527.324 14.0475C528.58 11.0142 530.708 8.42164 533.438 6.59761C536.167 4.77358 539.377 3.8 542.66 3.8C544.843 3.7894 547.006 4.21154 549.025 5.04202C551.044 5.87249 552.878 7.09483 554.422 8.6384C555.965 10.182 557.188 12.0161 558.018 14.0349C558.848 16.0537 559.271 18.2171 559.26 20.4V20.4Z" fill="#3F3D56"/>
<path d="M529.4 24.59C528.084 22.2121 527.371 19.5479 527.324 16.8306C527.277 14.1134 527.897 11.4261 529.13 9.00408C530.363 6.58209 532.171 4.49934 534.395 2.93828C536.62 1.37722 539.193 0.38549 541.89 0.0499655C539.603 -0.030126 537.324 0.363509 535.197 1.20615C533.069 2.0488 531.138 3.32225 529.526 4.94654C527.914 6.57083 526.656 8.51087 525.829 10.6448C525.003 12.7788 524.627 15.0606 524.724 17.3469C524.822 19.6333 525.391 21.8747 526.396 23.9306C527.401 25.9865 528.82 27.8123 530.565 29.2935C532.309 30.7747 534.341 31.8792 536.532 32.5377C538.724 33.1962 541.028 33.3944 543.3 33.12C540.445 33.0145 537.665 32.174 535.23 30.6796C532.795 29.1853 530.787 27.0878 529.4 24.59V24.59Z" fill="#3F3D56"/>
<path d="M566.38 43.52H521.91V112.89H566.38V43.52Z" fill="#3F3D56"/>
<path opacity="0.1" d="M566.38 43.52H521.91V112.89H566.38V43.52Z" fill="black"/>
<path d="M451.66 295.2C451.66 295.2 446.91 308.25 435.66 310.03C424.41 311.81 417.87 314.77 417.87 314.77L444.55 331.96L458.78 330.18C458.78 330.18 460.56 311.8 466.49 307.65C472.42 303.5 451.66 295.2 451.66 295.2Z" fill="#A0616A"/>
<path d="M644.34 295.2C644.34 295.2 649.09 308.25 660.34 310.03C671.59 311.81 678.13 314.77 678.13 314.77L651.45 331.96L637.22 330.18C637.22 330.18 635.44 311.8 629.51 307.65C623.58 303.5 644.34 295.2 644.34 295.2Z" fill="#A0616A"/>
<path d="M514.5 180.18C514.5 180.18 507.39 183.74 505.02 190.86C505.02 190.86 492.02 195.01 484.86 206.27C484.86 206.27 475.96 215.76 474.78 220.5C473.6 225.24 460 253.7 460 253.7C460 253.7 446.36 298.17 439.25 302.91C439.25 302.91 461.78 298.17 465.93 320.7C465.93 320.7 471.26 320.7 477.19 299.95C483.12 279.2 497.35 253.7 497.35 253.7C497.35 253.7 502.09 235.92 506.24 232.95C510.39 229.98 516.91 216.35 522.84 219.95C528.77 223.55 567.9 219.35 567.9 219.35C567.9 219.35 591 229.99 591.58 237.1C592.16 244.21 596.32 244.81 596.91 250.74C597.5 256.67 619.44 303.5 619.44 303.5C619.44 303.5 623.59 316.5 624.78 319.5C624.78 319.5 637.78 288.08 655.02 305.87C655.02 305.87 654.42 294.01 649.09 286.87C643.76 279.73 620.63 224.03 620.63 224.03C620.63 224.03 618.26 215.73 615.89 213.36C613.52 210.99 595.13 192.01 588.61 192.01C588.61 192.01 585.06 183.12 580.91 181.93L514.5 180.18Z" fill="#3F3D56"/>
<path d="M461.14 326.03C456.509 327.889 451.476 328.517 446.531 327.853C441.585 327.189 436.896 325.255 432.92 322.24C429.056 319.273 424.824 316.819 420.33 314.94C414.04 312.4 406.52 310.52 404.23 314.77C400.08 322.48 454.62 341.45 454.62 341.45C454.62 341.45 461.74 337.3 461.14 326.03Z" fill="#3F3D56"/>
<path d="M634.86 326.03C639.491 327.889 644.524 328.517 649.469 327.853C654.415 327.189 659.104 325.255 663.08 322.24C666.944 319.273 671.176 316.819 675.67 314.94C681.96 312.4 689.48 310.52 691.77 314.77C695.92 322.48 641.38 341.45 641.38 341.45C641.38 341.45 634.26 337.3 634.86 326.03Z" fill="#3F3D56"/>
<path d="M533.88 82.6699C533.66 84.7299 532.98 86.9599 531.22 88.0499C529.78 88.9499 527.96 88.8799 526.3 89.2199C524.557 89.6563 522.941 90.4964 521.583 91.6725C520.224 92.8485 519.162 94.3274 518.48 95.9899C517.148 99.3452 516.887 103.03 517.73 106.54C518.122 108.259 518.63 109.949 519.25 111.6C520.99 116.52 523.09 121.4 526.34 125.49C529.113 128.741 532.232 131.682 535.64 134.26C537.75 135.98 539.93 137.73 542.53 138.54C544.293 139.005 546.107 139.247 547.93 139.26C550.18 139.36 552.58 139.43 554.53 138.31C557.53 136.58 558.42 132.76 560.05 129.69C561.43 127.09 563.49 124.88 564.78 122.23C565.697 120.141 566.368 117.953 566.78 115.71L569.55 103.41C570.55 98.9399 571.47 93.8999 568.96 90.0699C568.778 89.7583 568.524 89.4944 568.22 89.2999C567.737 89.1095 567.211 89.0575 566.7 89.1499C563.512 89.3572 560.332 88.6309 557.55 87.0599C557.114 86.8344 556.724 86.5291 556.4 86.1599C556.001 85.5194 555.76 84.7924 555.7 84.0399C555.43 82.516 555.001 81.0246 554.42 79.5899C554.256 79.0728 553.956 78.6097 553.55 78.2499C553.124 77.983 552.641 77.8219 552.14 77.7799C547.859 77.0853 543.542 76.6346 539.21 76.4299C537.79 76.3599 535.65 75.7899 534.67 77.0499C533.69 78.3099 534 81.1699 533.88 82.6699Z" fill="#A0616A"/>
<path opacity="0.1" d="M533.88 82.6699C533.66 84.7299 532.98 86.9599 531.22 88.0499C529.78 88.9499 527.96 88.8799 526.3 89.2199C524.557 89.6563 522.941 90.4964 521.583 91.6725C520.224 92.8485 519.162 94.3274 518.48 95.9899C517.148 99.3452 516.887 103.03 517.73 106.54C518.122 108.259 518.63 109.949 519.25 111.6C520.99 116.52 523.09 121.4 526.34 125.49C529.113 128.741 532.232 131.682 535.64 134.26C537.75 135.98 539.93 137.73 542.53 138.54C544.293 139.005 546.107 139.247 547.93 139.26C550.18 139.36 552.58 139.43 554.53 138.31C557.53 136.58 558.42 132.76 560.05 129.69C561.43 127.09 563.49 124.88 564.78 122.23C565.697 120.141 566.368 117.953 566.78 115.71L569.55 103.41C570.55 98.9399 571.47 93.8999 568.96 90.0699C568.778 89.7583 568.524 89.4944 568.22 89.2999C567.737 89.1095 567.211 89.0575 566.7 89.1499C563.512 89.3572 560.332 88.6309 557.55 87.0599C557.114 86.8344 556.724 86.5291 556.4 86.1599C556.001 85.5194 555.76 84.7924 555.7 84.0399C555.43 82.516 555.001 81.0246 554.42 79.5899C554.256 79.0728 553.956 78.6097 553.55 78.2499C553.124 77.983 552.641 77.8219 552.14 77.7799C547.859 77.0853 543.542 76.6346 539.21 76.4299C537.79 76.3599 535.65 75.7899 534.67 77.0499C533.69 78.3099 534 81.1699 533.88 82.6699Z" fill="black"/>
<path d="M525.85 89.7399C523.534 89.0484 521.136 88.6717 518.72 88.6199C513 88.4799 506.88 90.4499 503.58 95.1199C501.332 98.4908 500.509 102.614 501.29 106.59C502.086 110.528 503.876 114.198 506.49 117.25C508 118.854 509.341 120.61 510.49 122.49C512.07 125.49 512.12 129.08 512.55 132.49C513.55 140.61 517.01 148.24 518.38 156.31C519.75 164.38 518.57 173.73 512.2 178.86C511.13 179.72 509.83 180.63 509.74 182C509.6 184.19 512.45 185.12 514.64 185.33C521.19 185.95 527.91 186.56 534.27 184.87C536.9 184.17 539.44 183.08 542.12 182.58C548.92 181.31 555.76 183.92 562.57 185.17C567.498 185.984 572.485 186.388 577.48 186.38C578.643 186.484 579.814 186.33 580.91 185.93C581.453 185.717 581.915 185.337 582.227 184.844C582.54 184.351 582.688 183.772 582.65 183.19C582.428 182.436 582.022 181.749 581.47 181.19C578.03 176.94 576.98 171.29 576.04 165.9L572.89 147.79C571.2 138.11 569.63 127.59 574.21 118.9C577.5 112.65 583.57 108.25 587.04 102.1C588.25 100.241 588.796 98.0281 588.59 95.8199C588.07 92.7299 585.28 90.5199 582.42 89.2299C576.917 86.7614 570.669 86.5318 565 88.5899C565.1 92.9199 564 97.2999 563.29 101.59L562.08 108.59C561.464 112.715 560.559 116.792 559.37 120.79C558.938 122.389 558.202 123.89 557.2 125.21C556.132 126.397 554.828 127.348 553.37 128C550.214 129.543 546.743 130.337 543.23 130.32C541.708 130.343 540.194 130.11 538.75 129.63C536.424 128.61 534.326 127.134 532.58 125.29C531.968 124.767 531.421 124.173 530.95 123.52C530.452 122.689 530.078 121.789 529.84 120.85C529.03 118.404 528.392 115.905 527.93 113.37C527.63 111.43 527.53 109.46 527.39 107.5C527 101.71 527 95.3099 525.85 89.7399Z" fill="#6C63FF"/>
<path d="M519.84 204.49C519.84 204.49 517.47 235.92 532.29 241.25C547.11 246.58 534.07 215.16 534.07 215.16L529.32 205.68L519.84 204.49Z" fill="#A0616A"/>
<path d="M570.23 204.49C570.23 204.49 572.6 235.92 557.78 241.25C542.96 246.58 556 215.16 556 215.16L560.75 205.68L570.23 204.49Z" fill="#A0616A"/>
<path opacity="0.1" d="M506.79 99.59L502.05 107.3C502.05 107.3 506.2 133.98 506.79 138.72C507.302 142.14 508.098 145.512 509.17 148.8C509.17 148.8 509.76 163.03 509.76 168.37C509.76 173.71 512.76 182.6 512.76 182.6C513.178 187.64 514.185 192.614 515.76 197.42C518.13 203.94 520.5 211.65 520.5 211.65C520.5 211.65 523.5 203.35 535.32 215.8C536.644 214.457 537.386 212.646 537.386 210.76C537.386 208.874 536.644 207.063 535.32 205.72C535.32 205.72 531.77 189.72 531.77 181.41C531.77 173.1 525.24 133.41 525.24 133.41C525.24 133.41 521 88.29 506.79 99.59Z" fill="black"/>
<path d="M505.61 98.96L500.87 106.67C500.87 106.67 505.02 133.35 505.61 138.09C506.123 141.511 506.923 144.883 508 148.17C508 148.17 508.59 162.4 508.59 167.73C508.59 173.06 511.59 181.96 511.59 181.96C512.006 187.001 513.013 191.975 514.59 196.78C516.96 203.31 519.34 211.01 519.34 211.01C519.34 211.01 522.34 202.71 534.16 215.16C535.481 213.817 536.221 212.009 536.221 210.125C536.221 208.241 535.481 206.433 534.16 205.09C534.16 205.09 530.6 189.09 530.6 180.78C530.6 172.47 524.08 132.78 524.08 132.78C524.08 132.78 519.84 87.69 505.61 98.96Z" fill="#6C63FF"/>
<path opacity="0.1" d="M583.87 94.81L586.87 98.34C586.87 98.34 590.36 118.52 582.65 144.02L580.28 167.14C580.28 167.14 576.13 186.71 575.54 191.45C574.95 196.19 574.95 196.78 573.76 198.56C573.399 198.976 573.2 199.509 573.2 200.06C573.2 200.611 573.399 201.144 573.76 201.56L570.2 214.56C570.2 214.56 564.87 208.04 554.2 216.34C554.2 216.34 551.2 211.6 553.6 207.45C556 203.3 555.97 201.52 555.38 200.33C554.79 199.14 557.75 193.22 557.75 192.03C557.75 190.84 561.93 163.59 561.93 163.59C561.93 163.59 563.71 136.91 565.49 128.02C566.58 122.55 566.56 110.36 566.37 101.78C566.18 92.84 577 88 583.37 94.28C583.52 94.44 583.7 94.59 583.87 94.81Z" fill="black"/>
<path d="M585.65 93.5901L588.65 97.1201C588.65 97.1201 592.14 117.31 584.43 142.8L582.06 165.92C582.06 165.92 577.91 185.49 577.32 190.23C576.73 194.97 576.72 195.57 575.54 197.35C575.177 197.766 574.977 198.298 574.977 198.85C574.977 199.402 575.177 199.935 575.54 200.35L572 213.39C572 213.39 566.67 206.86 556 215.16C556 215.16 553 210.42 555.41 206.27C557.82 202.12 557.78 200.34 557.19 199.16C556.6 197.98 559.56 192.04 559.56 190.86C559.56 189.68 563.71 162.4 563.71 162.4C563.71 162.4 565.49 135.72 567.27 126.82C569.05 117.92 567.86 91.2501 567.86 91.2501C567.86 91.2501 577.35 84.7301 585.65 93.5901Z" fill="#6C63FF"/>
<path d="M545.92 85.3299C559.02 85.3299 569.64 74.7101 569.64 61.6099C569.64 48.5097 559.02 37.8899 545.92 37.8899C532.82 37.8899 522.2 48.5097 522.2 61.6099C522.2 74.7101 532.82 85.3299 545.92 85.3299Z" fill="#A0616A"/>
<path opacity="0.1" d="M558.29 25.9999C557.15 29.1827 555.065 31.9414 552.314 33.907C549.563 35.8727 546.278 36.9516 542.898 36.9995C539.517 37.0473 536.203 36.0618 533.397 34.1748C530.592 32.2877 528.43 29.5891 527.2 26.4399C536.46 22.7099 545.92 26.0299 545.92 26.0299C550.65 24.3699 554.75 24.5199 558.29 25.9999Z" fill="black"/>
<path d="M545.92 27.2199C545.92 27.2199 500.27 11.2199 511.54 88.8799C511.54 88.8799 521.62 95.3999 529.32 91.2499C529.32 91.2499 523.99 37.2999 544.74 39.6699C565.49 42.0399 561.93 90.0699 561.93 90.0699C561.93 90.0699 573.79 93.6199 577.35 87.0699C580.91 80.5199 576.16 16.5899 545.92 27.2199Z" fill="#3F3D56"/>
<path opacity="0.1" d="M544.74 36.11C530.5 34.49 528.54 59.38 528.74 75.16C528.91 59.47 531.55 38.16 544.74 39.67C559.55 41.36 561.98 66.33 562.15 80.47C562.32 67.49 560.9 37.96 544.74 36.11Z" fill="black"/>
<path opacity="0.1" d="M511.54 85.32C510.508 78.522 509.917 71.6644 509.77 64.79C509.721 72.8543 510.312 80.9096 511.54 88.88C511.54 88.88 521.62 95.4 529.32 91.25C529.32 91.25 529.2 89.97 529.06 87.82C521.39 91.69 511.54 85.32 511.54 85.32Z" fill="black"/>
<path opacity="0.1" d="M577.35 83.5899C574.03 89.6699 563.52 86.9999 562.1 86.5899C562.03 88.7899 561.93 90.1099 561.93 90.1099C561.93 90.1099 573.79 93.6599 577.35 87.1099C578.08 85.7699 578.46 81.9799 578.35 76.9099C578.25 80.1599 577.9 82.5899 577.35 83.5899Z" fill="black"/>
<path d="M826.73 672.96C831.47 664.18 826.09 653.42 819.91 645.59C813.73 637.76 806.18 629.59 806.34 619.59C806.57 605.24 821.79 596.78 833.96 589.17C842.981 583.529 851.302 576.839 858.75 569.24C861.75 566.19 864.62 562.93 866.37 559.03C868.89 553.43 868.82 547.03 868.66 540.91C868.133 520.437 867.133 499.99 865.66 479.57" stroke="#3F3D56" stroke-width="4" stroke-miterlimit="10"/>
<path d="M888.74 478.49C888.569 474.745 887.457 471.103 885.506 467.901C883.556 464.699 880.83 462.04 877.58 460.17L872.58 470.07L872.73 458.07C868.182 456.725 863.323 456.86 858.857 458.456C854.39 460.052 850.546 463.026 847.881 466.95C845.215 470.873 843.866 475.542 844.027 480.283C844.189 485.023 845.853 489.589 848.779 493.322C851.705 497.055 855.743 499.761 860.307 501.05C864.872 502.338 869.728 502.143 874.175 500.491C878.621 498.839 882.427 495.817 885.043 491.86C887.66 487.904 888.951 483.218 888.73 478.48L888.74 478.49Z" fill="#6C63FF"/>
<path d="M848.86 629.88C846.514 634.442 842.67 638.059 837.974 640.124C833.277 642.188 828.014 642.575 823.066 641.22C818.118 639.864 813.787 636.848 810.799 632.677C807.811 628.507 806.348 623.436 806.655 618.315C806.963 613.194 809.021 608.335 812.487 604.552C815.952 600.768 820.612 598.292 825.687 597.538C830.761 596.783 835.941 597.797 840.357 600.408C844.773 603.019 848.156 607.07 849.94 611.88L835.94 623.25L851.31 619.68C851.318 623.227 850.478 626.724 848.86 629.88V629.88Z" fill="#6C63FF"/>
<path d="M837.81 586.45C832.338 586.682 826.97 584.898 822.726 581.437C818.481 577.975 815.654 573.077 814.779 567.67C813.905 562.263 815.045 556.723 817.984 552.1C820.922 547.478 825.453 544.094 830.72 542.59L830.6 551.81L835.66 541.81H835.72C838.667 541.651 841.616 542.076 844.398 543.062C847.179 544.048 849.739 545.574 851.928 547.554C854.117 549.533 855.893 551.926 857.153 554.594C858.413 557.263 859.133 560.154 859.271 563.102C859.409 566.05 858.962 568.996 857.956 571.771C856.951 574.546 855.406 577.094 853.411 579.268C851.416 581.443 849.011 583.202 846.333 584.443C843.656 585.684 840.759 586.383 837.81 586.5V586.45Z" fill="#6C63FF"/>
<path d="M892.11 550.32C888.65 550.482 885.2 549.838 882.032 548.44C878.863 547.042 876.063 544.927 873.851 542.262C871.639 539.597 870.076 536.455 869.285 533.083C868.494 529.711 868.497 526.201 869.293 522.831C870.089 519.46 871.658 516.321 873.874 513.659C876.09 510.998 878.894 508.887 882.065 507.494C885.236 506.101 888.687 505.463 892.146 505.631C895.606 505.798 898.979 506.767 902 508.46L898 519.29L906.13 511.49C909.385 514.476 911.683 518.358 912.735 522.648C913.786 526.938 913.545 531.443 912.04 535.596C910.535 539.748 907.835 543.363 904.279 545.983C900.724 548.603 896.472 550.112 892.06 550.32H892.11Z" fill="#6C63FF"/>
<path opacity="0.1" d="M885.74 484.45C880.57 485.02 875.55 486.63 870.37 486.95C865.19 487.27 859.5 486.03 856.23 481.95C854.46 479.78 853.58 477.04 852.09 474.67C850.675 472.47 848.742 470.65 846.46 469.37C845.018 472.206 844.197 475.317 844.052 478.495C843.907 481.673 844.442 484.846 845.621 487.801C846.8 490.756 848.596 493.426 850.889 495.632C853.181 497.838 855.918 499.529 858.916 500.593C861.915 501.658 865.105 502.07 868.276 501.803C871.446 501.536 874.523 500.596 877.301 499.045C880.079 497.495 882.495 495.369 884.386 492.811C886.278 490.253 887.602 487.321 888.27 484.21C887.42 484.3 886.58 484.36 885.74 484.45Z" fill="black"/>
<path opacity="0.1" d="M892.11 550.32C888.255 550.497 884.419 549.674 880.976 547.932C877.532 546.19 874.598 543.587 872.456 540.376C870.315 537.165 869.04 533.456 868.755 529.607C868.47 525.758 869.185 521.901 870.83 518.41C872.611 519.604 874.14 521.137 875.33 522.92C876.92 525.32 877.89 528.1 879.76 530.31C883.24 534.4 889.2 535.74 894.6 535.5C900 535.26 905.2 533.72 910.6 533.22C911.35 533.16 912.1 533.11 912.86 533.09C911.747 537.829 909.118 542.074 905.374 545.184C901.629 548.293 896.972 550.097 892.11 550.32Z" fill="black"/>
<path opacity="0.1" d="M837.81 586.45C833.993 586.628 830.194 585.826 826.775 584.12C823.357 582.413 820.432 579.86 818.28 576.702C816.128 573.545 814.821 569.888 814.483 566.082C814.145 562.276 814.788 558.447 816.35 554.96C818.195 556.171 819.798 557.714 821.08 559.51C822.82 561.96 823.9 564.78 825.94 567.05C829.71 571.25 836.05 572.73 841.77 572.59C847.31 572.47 852.64 571.11 858.15 570.69C856.795 575.092 854.115 578.968 850.474 581.789C846.833 584.61 842.411 586.238 837.81 586.45V586.45Z" fill="black"/>
<path opacity="0.1" d="M848.86 629.88C846.268 635.02 841.794 638.963 836.368 640.889C830.943 642.814 824.984 642.574 819.732 640.218C814.479 637.863 810.337 633.572 808.166 628.24C805.996 622.908 805.965 616.944 808.08 611.59C809.925 612.799 811.579 614.275 812.99 615.97C815.12 618.56 816.52 621.5 818.99 623.91C823.56 628.4 830.94 630.25 837.51 630.42C841.301 630.462 845.09 630.281 848.86 629.88V629.88Z" fill="black"/>
<path d="M793 662.85C793 662.85 810.65 662.31 816 658.52C821.35 654.73 843.16 650.21 844.48 656.28C845.8 662.35 871.01 686.5 851.08 686.66C831.15 686.82 804.77 683.56 799.46 680.32C794.15 677.08 793 662.85 793 662.85Z" fill="#656380"/>
<path opacity="0.2" d="M851.4 684.59C831.47 684.75 805.09 681.48 799.78 678.25C795.78 675.78 794.13 666.95 793.59 662.87H793C793 662.87 794.12 677.11 799.43 680.34C804.74 683.57 831.12 686.84 851.05 686.68C856.8 686.68 858.79 684.59 858.68 681.56C857.88 683.37 855.69 684.51 851.4 684.59Z" fill="black"/>
</svg>
