<?xml version="1.0" encoding="UTF-8"?>
<svg enable-background="new 0 0 100 100" version="1.1" viewBox="0 0 100 100" xml:space="preserve" xmlns="http://www.w3.org/2000/svg">
		<path d="m47.3 1.2c-11.8 0-22.5 4.3-30.9 11.4l-9.2-6.1c-0.5 9.7-1 19-1.5 28.7 8.6-4.4 16.9-8.7 25.4-13l-8.1-5.3c6.8-5.2 15.2-8.2 24.4-8.2 22.4 0 40.6 18.4 40.6 41s-18.2 41-40.6 41c-10.4 0-19.8-3.9-27-10.4-1.6 1.9-3.3 3.7-5.1 5.4 8.4 7.6 19.7 12.3 32 12.3 26.4 0 48-21.7 48-48.4s-21.5-48.4-48-48.4zm-21.6 65.9 21.9 12.6v-25.8l-21.9-12.6v25.8zm0.7-26.7 21.9 12.6 7.1-9.4-21.9-12.7-7.1 9.5zm11.7-12.1 21.9 12.5 9.5-0.5-21.9-12.6-9.5 0.6zm11 51.4 21.9-12.6v-25.8l-21.9 12.6v25.8z" fill="#7c7a92"/>
</svg>
