<?xml version="1.0" encoding="UTF-8"?>
<svg enable-background="new 0 0 100 100" version="1.1" viewBox="0 0 100 100" xml:space="preserve" xmlns="http://www.w3.org/2000/svg">
<path d="m82 11.5c-0.5-0.7-1-0.9-1.9-0.9h-16.1-7.1-7.3-7.2-7.3-16.4-0.1c-0.7 0-1 0.2-1.5 0.7-6.4 7.9-11.6 14.2-16.3 19.8 16.6 20 33 39.9 48.7 59.2 5.5-6.9 11.1-13.7 15.4-18.9 11.1-13.5 22.1-26.8 33.3-40.2l0.1-0.1-0.1-0.1c-4.9-5.7-10-11.9-16.2-19.5zm-4 2.5c-2.4 3.5-4.6 6.7-6.8 9.9-0.8 1.2-1.8 2.3-2.5 3.6-1 2-1.8 1.9-3.1 0.4-3.6-4.2-7.4-8.3-11-12.4-0.4-0.4-0.9-0.7-1-1.5h24.4zm-26.5 0.6c4.4 4.8 8.8 9.7 13.2 14.6 0.1 0.1 0.2 0.4 0.4 0.8h-31.3c2.2-2.5 4.1-4.8 6.1-7 2.5-2.8 5-5.6 7.5-8.3 1.3-1.4 2.9-1.5 4.1-0.1zm-5.9-0.7c-2.4 2.7-4.5 5.2-6.7 7.7-2.1 2.4-4.2 4.7-6.4 7-0.5 0.6-0.9 1-1.6 0.1l-9.6-14.1c-0.1-0.1 0-0.3-0.1-0.7h24.4zm-35.4 10.1c2.3-2.8 4.7-5.5 6.9-8.4 1.3-1.7 2-1.3 3.1 0.2 3.1 4.6 6.2 9.2 9.6 14.1h-24.6c1.9-2.2 3.5-4 5-5.9zm36.1 57.6c-0.4-0.4-1.9-2.3-2.3-2.8-12.5-15.1-25-30.2-37.5-45.4-0.3-0.4-0.6-0.8-1.1-1.5h8.5 15.5c0.6 0 1-0.4 1.4 0 0.2 0.2 0.5 0.9 0.6 1.3 4.7 15.3 9.4 30.7 14.1 46 0.1 0.2 0.6 1.9 0.8 2.4zm4.1 2c-0.2 0.6-0.4 1.3-0.9 2.7-0.4-1-0.7-2.2-0.9-2.8-2.1-6.7-4.2-13.5-6.2-20.2-2.9-9.6-5.9-19.1-8.8-28.7-0.9-2.8-0.9-2.8 1.6-2.8h14.4c4.9 0 9.8 0.1 14.8 0 1.5 0 2 0.3 1.4 2.2-4.5 14.5-8.9 29-13.4 43.6-0.8 2.1-1.4 4-2 6zm42.2-50.3c-12.6 15.2-25.2 30.4-37.8 45.6-0.4 0.4-1.3 1.8-1.9 2.6 0.1-0.5 4.2-14.3 6.1-20.6l8.4-27.3c0.4-1.2 0.8-1.8 1.9-1.8 7.9 0.1 15.9 0 23.8 0 0.3 0.9-0.3 1.1-0.5 1.5zm-23.4-3.4c2.8-4.1 5.3-7.9 8-11.7 1-1.4 1.8-4.1 3.2-3.9 1.2 0.1 2.3 2.4 3.4 3.7 3.2 3.8 6.4 7.6 9.9 11.9h-24.5z" fill="#bebeca"/>
</svg>
