<?xml version="1.0" encoding="UTF-8"?>
<svg enable-background="new 0 0 100 100" version="1.1" viewBox="0 0 100 100" xml:space="preserve" xmlns="http://www.w3.org/2000/svg">
		<path d="m13.9 98.4h17.8v-5.5h-11.3v-8.1h10.5v-5.5h-10.5v-6.9h11.2v-5.4h-17.7v31.4zm40.5-7.4h-0.1l-7.3-24h-8.9v31.4h5.9v-14.6c0-1.7-0.1-5-0.4-10h0.2l7.4 24.6h6l8-24.6h0.2c-0.2 3.9-0.3 6.4-0.3 7.3v2.4 14.8h6.1v-31.3h-8.9l-7.9 24zm24.5-24v31.4h6.6v-31.4h-6.6zm-60.2-6h61.1c0.5 0 0.9 0 1.4-0.1 2.1-0.3 3.9-2.2 4-4.3 0.1-1.6 0-3.1 0-4.7v-41.4c0-2.6-2.2-4.8-4.7-4.7h-12.5-0.3v-2c0.1-1-0.7-1.8-1.8-1.8-1 0-1.9 0.8-1.9 1.9v2h-28.7v-2c0-1.1-0.9-1.9-1.9-1.9s-1.9 0.9-1.9 1.9v2h-0.3-12.7c-2.6 0-4.7 2.2-4.7 4.8v17.3 28.1c0 0.7 0.1 1.3 0.4 2 0.9 1.9 2.4 2.9 4.5 2.9zm0.2-51.3h12.5 0.2v0.3 1.7c0 1.1 0.9 1.9 1.9 1.9 1.1 0 1.9-0.8 1.9-1.9v-2h28.6v1.8c0 0.3 0.1 0.6 0.2 0.9 0.3 0.9 1.2 1.3 2.1 1.2 0.8-0.1 1.5-0.9 1.5-1.8v-2.1h0.3 12.2c0.4 0 0.8 0.1 1 0.5 0.1 0.2 0.2 0.4 0.2 0.6v6.4c0 0.3-0.1 0.3-0.3 0.3h-28.7-34.3c-0.5 0-0.5 0-0.5-0.5v-6.1c0-0.8 0.3-1.2 1.2-1.2zm-1.2 11.6h0.6 62.6c0.6 0 0.6 0 0.6 0.6v33.9 0.6c-0.1 0.4-0.5 0.7-1 0.7h-33.4-28.5c-0.5 0-0.9-0.4-1-0.9v-0.4-34.5zm35.6 10.6h7.4c0.7 0 1.2-0.4 1.2-1v-4.7c0-0.7-0.4-1-1.2-1h-3.7-3.8c-0.7 0-1.2 0.4-1.2 1v4.6c0 0.8 0.4 1.1 1.3 1.1zm14.2 0h7.3c0.8 0 1.2-0.4 1.2-1.1v-4.7c0-0.7-0.4-1-1.2-1h-3.7-3.8c-0.7 0-1.1 0.4-1.1 1v4.6c0 0.9 0.4 1.2 1.3 1.2zm-21.2 3.9h-3.7-3.8c-0.7 0-1.2 0.4-1.2 1v4.6c0 0.8 0.4 1.2 1.3 1.2h7.3c0.8 0 1.2-0.4 1.2-1.1v-4.6c0.1-0.7-0.3-1.1-1.1-1.1zm21.2 6.8h7.3c0.8 0 1.2-0.4 1.2-1.1v-4.7c0-0.7-0.4-1.1-1.2-1.1h-3.7-3.8c-0.7 0-1.1 0.4-1.1 1v4.6c0 0.9 0.4 1.3 1.3 1.3zm-42.5 0.1h7.2c0.8 0 1.2-0.4 1.2-1.1v-4.7c0-0.7-0.4-1.1-1.2-1.1h-3.7-3.8c-0.7 0-1.2 0.4-1.2 1v4.5c0.1 0.9 0.6 1.4 1.5 1.4zm-0.2 10.5h7.3c0.8 0 1.2-0.4 1.2-1.1v-4.6c0-0.7-0.4-1.1-1.2-1.1h-3.7-3.8c-0.7 0-1.2 0.4-1.2 1v4.6c0.1 0.9 0.5 1.2 1.4 1.2zm21.6-6.8h-3.7-3.8c-0.7 0-1.2 0.4-1.2 1v4.6c0 0.7 0.4 1.1 1.2 1.1h7.4c0.7 0 1.2-0.4 1.2-1.1v-4.7c0.1-0.5-0.4-0.9-1.1-0.9zm14.2 0h-3.7-3.8c-0.7 0-1.1 0.4-1.1 1v4.6c0 0.8 0.4 1.1 1.3 1.1h7.4c0.7 0 1.2-0.4 1.2-1v-4.7c-0.1-0.6-0.5-1-1.3-1zm-21.7-14.5h7.4c0.7 0 1.2-0.4 1.2-1v-4.7c0-0.7-0.4-1.1-1.2-1.1h-3.7-3.8c-0.7 0-1.2 0.4-1.2 1v4.6c0.1 0.9 0.5 1.2 1.3 1.2zm14.5 10.7h7.2c0.8 0 1.2-0.4 1.2-1.1v-4.7c0-0.7-0.4-1-1.2-1h-3.7-3.8c-0.7 0-1.2 0.4-1.2 1v4.5c0 0.9 0.6 1.3 1.5 1.3z" fill="#7c7a92"/>
</svg>
