<?xml version="1.0" encoding="UTF-8"?>
<svg enable-background="new 0 0 100 100" version="1.1" viewBox="0 0 100 100" xml:space="preserve" xmlns="http://www.w3.org/2000/svg">
<style type="text/css">
	.st0{fill:#7c7a92;}
</style>
<g fill="#7c7a92">
	<path class="st0" d="m30.1 69.2c-1.7-0.1-4.2-2.8-6.6-6s-6.3-4.5-7.5-4.2c-1.3 0.3-0.7 1.7-0.4 2 0.2 0.3 7.1 9.3 7.1 9.3l-3.1-1.8s-3.1-4.7-4.9-7 1.1-3.8 1.1-3.8-0.6-7.4-0.7-9c-0.1-1.7-1.4-3.4-2.3-3.5-0.8-0.2-1.2 1.2-1.2 2.4s-0.7 9.6-0.7 10.6 0.1 2.4 0.7 3.6c0.5 1.2 4.9 10.8 5.4 12s1 1.9 2.2 2.8 8.2 5.4 12.8 7.8c3.9 2.1 3.2 9.5 3.2 9.5h12.3s-0.2-4.5 0.3-5.9c0.5-1.3 0.6-6.6-4.1-12.6-4.6-6-11.9-6.2-13.6-6.2z"/>
	<path class="st0" d="m88.5 47.4c0-1.2-0.4-2.6-1.2-2.4s-2.1 1.9-2.3 3.5c-0.1 1.7-0.7 9-0.7 9s2.9 1.5 1.1 3.8-4.9 7-4.9 7l-3.1 1.8s6.9-9 7.1-9.3 0.8-1.7-0.4-2c-1.3-0.3-5.1 1-7.5 4.2s-4.9 5.9-6.6 6-9.1 0.2-13.7 6.1-4.6 11.2-4.1 12.6c0.5 1.3 0.3 5.9 0.3 5.9h12.3s-0.7-7.4 3.2-9.5c4.6-2.4 11.6-6.9 12.8-7.8s1.7-1.7 2.2-2.8c0.5-1.2 4.9-10.8 5.4-12s0.7-2.6 0.7-3.6c0-0.9-0.6-9.2-0.6-10.5z"/>
	<path class="st0" d="m72.5 47.2c0-10.9-7.8-19.9-18.1-22l10.7-10.2-6-8.7h-18.2l-6 8.7 10.7 10.2c-10.3 2-18.1 11.1-18.1 22 0 12.4 10.1 22.4 22.5 22.4s22.5-10.1 22.5-22.4zm-19.8-22.3c-0.3 0-0.6-0.1-0.9-0.1l4-9.3h6.7l-9.8 9.4zm-2-0.1h-0.7-0.5l-3.2-9.2h8.2l-3.8 9.2zm11.8-10.5h-6.2l2.4-5.5 3.8 5.5zm-4.9-6.2-2.4 5.7-3.8-5.7h6.2zm-3.6 6.2h-7.4l3.4-5.9 4 5.9zm-5.2-6.2-3.3 5.6-3-5.6h6.3zm-7.4 0.6 3.1 5.6h-6.9l3.8-5.6zm-3.9 6.8h7.5l3.3 9.3c-0.3 0-0.7 0.1-1 0.1l-9.8-9.4zm12.5 50.1c-10.2 0-18.5-8.2-18.5-18.4s8.3-18.4 18.5-18.4 18.5 8.2 18.5 18.4c0 10.1-8.3 18.4-18.5 18.4z"/>
</g>
</svg>
