<?xml version="1.0" encoding="UTF-8"?>
<svg enable-background="new 0 0 100 100" version="1.1" viewBox="0 0 100 100" xml:space="preserve" xmlns="http://www.w3.org/2000/svg">
		<path d="m51.7 95.7c-1.6-0.1-3.1-0.2-4.7-0.5-23.8-4.1-39.1-28.4-32.8-52 4.5-16.8 20.3-31.5 41.2-30.7 2.2 0.1 3.4-1 4.9-2.3-5.4-1.3-12.3-0.9-19.1 1.3-16.4 5.5-26.8 16.8-30.2 33.9-3.4 17 2 31.5 14.8 42.9 7.3 6.5 16.1 9.5 25.7 10.3 1 0.1 1.7 0.1 1.8-1.4 0.1-1.4-0.5-1.5-1.6-1.5zm37.9-74.9c-1.5-1-3-2-4.6-2.8-1.5-0.8-2-1.5-1.3-3.3 1.2-3.2 2-6.6 3-9.9 0.3-1.1 0.2-2.1-0.6-3s-1.4-1.1-2 0.2c-1.1 2.2-2.3 4.3-3.4 6.5-1 1.8-1.6 4.5-3.1 5-1.4 0.5-3.6-1.3-5.4-2-1.3-0.5-1.7-1.2-1.6-2.6 0.2-1.9 0.1-3.7-2.3-4.7-0.3 3.8-1 7.3-4.6 9.3-0.4 0.2-1.7 0.5-0.9 1.5 0.6 0.8 1.3 2 2.5 0.8 2.7-2.4 5.2-1.7 7.6 0.6 0.3 0.3 0.7 0.6 1.1 0.7 1.1 0.5 1.1 1.1 0.5 2.2-2.1 3.4-4 6.9-6.1 10.2-0.9 1.5-0.2 1.9 0.9 2.3 1 0.5 1.6-0.2 2.2-0.8 2.5-2.4 4.6-5.2 6.7-7.9 0.9-1.2 1.6-1.7 3.1-0.7 1.8 1.2 3.9 2.2 5.9 3.1 1.3 0.6 2.7 1 3.6-0.6 0.6-1.5 0.4-3-1.2-4.1zm-15.7 10.5c-1.3 1.4 0.1 1.6 0.6 2.3 0.5 0.6 1.1 1.2 1.7 1.9-1.5 1.1-3.1 1.8-4.6 2.6-1.1 0.6-1.5 0.3-2-0.9-1.4-3.8-3.2-7.3-6.2-10.2 0.6-0.3 1 0 1.5 0.2 1.3 0.9 1.9 0 2.4-1 0.6-1.4-0.8-1.2-1.3-1.4-18.8-8-40.8 4.7-43.5 25.1-1.8 13.8 4.9 26.8 17.3 33.3 11.6 6 25.9 3.9 35.9-5.4 13-12.2 13.4-33.6 0.6-46-0.6-0.6-1.1-1.9-2.4-0.5zm-21.2 21.5c0 1.2-0.5 1.4-1.5 1.4-2-0.1-4 0-6 0s-4-0.1-6 0c-1.1 0-1.3-0.3-1.3-1.4 0.1-3.3 0.6-6.5 1.2-9.7 0.2-1.2 0.7-1.3 1.7-1 3.4 1.1 7 1.5 10.6 1.7 1 0 1.4 0.3 1.3 1.4-0.1 2.6-0.1 5.1 0 7.6zm-2.5-26.9c2.4-1.2 2.5-1.1 2.5 1.7v5.8c0 2.1-0.1 4.2 0 6.3 0 1.2-0.2 1.7-1.5 1.6-3.4-0.2-6.7-0.7-9.9-1.6-0.4-0.1-1.3 0-0.9-1 1.9-5.3 4.4-10.2 9.8-12.8zm-14.7 5.9c2.6-2.1 5.3-3.8 9.1-5.1-3.1 3.4-5.1 6.8-6.4 10.6-0.4 1.1-0.9 1.2-1.9 0.7-5-2.1-5.1-2.7-0.8-6.2zm-10.6 20.2c0.5-4.8 2-9.3 4.5-13.4 0.5-0.9 1-1.1 1.8-0.5 0.1 0 0.1 0.1 0.2 0.1 1.8 0.9 4.3 1.5 5.1 2.9 0.7 1.5-0.5 3.8-0.7 5.8-0.2 1.9-0.4 3.7-0.4 5.6 0 1.2-0.3 1.7-1.6 1.6-1.2-0.1-2.4 0-3.6 0-1 0-2-0.1-3 0-1.9 0.4-2.5-0.2-2.3-2.1zm6.1 18.9c-0.9 0.5-1.1 0.1-1.5-0.5-2.4-3.8-3.9-7.8-4.5-12.3-0.2-1.1 0.1-1.4 1.2-1.3 1.3 0.1 2.6 0 4.2 0 1.4 0.2 3.6-0.8 4.6 0.4 0.9 1 0.5 3.2 0.7 4.8v0.4c-0.1 1.9 1.9 4 0.4 5.6-1.1 1.5-3.4 1.9-5.1 2.9zm1.2 3.1c-0.4-0.5-0.2-0.7 0.2-1 0.2-0.1 0.5-0.3 0.7-0.4 1.4-0.7 2.8-1.9 4-1.8 1.5 0.2 1.4 2.4 2 3.6 1.2 2.4 2.7 4.7 4.2 7.1-4.4-1.3-8-4.1-11.1-7.5zm20.4 9.8c-3.2-0.6-5.3-2.2-7.2-4.3-2.3-2.6-3.8-5.6-5-8.8-0.3-0.8-0.3-1.2 0.7-1.5 3.4-0.9 6.8-1.4 10.3-1.6 0.8-0.1 1.1 0.2 1.1 1 0.1 5.1 0.1 10.1 0.1 15.2zm0.1-20.2c0.1 1.1-0.4 1.5-1.5 1.5-3.6 0.1-7.1 0.7-10.5 1.7-0.9 0.3-1.4 0.1-1.6-1-0.5-2.6-0.8-5.1-1.1-7.7-0.1-1.1 0.3-1.3 1.3-1.3 2.1 0.1 4.1 0 6.2 0h5.8c1 0 1.6 0.1 1.5 1.4-0.2 1.8-0.2 3.6-0.1 5.4zm2.5-38.4c3.3 0.6 5.6 2.4 7.5 4.7 2 2.5 3.4 5.3 4.6 8.3 0.4 1.1 0.1 1.4-0.8 1.6-3.3 0.8-6.6 1.3-9.9 1.5-1.1 0.1-1.3-0.4-1.3-1.4-0.1-4.8-0.1-9.7-0.1-14.7zm0 20.1c0-1.1 0.3-1.4 1.3-1.4 3.6-0.1 7.1-0.6 10.6-1.7 0.9-0.3 1.4-0.1 1.6 0.9 0.7 3.3 1.1 6.6 1.2 9.9 0 1-0.3 1.2-1.2 1.2h-6.2-5.8c-1 0-1.6-0.1-1.5-1.4 0.1-2.5 0.1-5 0-7.5zm0.5 11.9c1-1 3.8-0.3 5.8-0.3h1.3 4.1c3.1 0 3.2 0 2.8 3.2-0.2 1.9-0.6 3.7-0.9 5.6-0.2 1-0.5 1.5-1.7 1.1-3.4-1-6.8-1.6-10.4-1.6-1.3 0-1.6-0.5-1.5-1.7 0.2-2.2-0.9-5 0.5-6.3zm2.7 25.5c-0.3 0.2-0.6 0.4-0.9 0.5-2.1 0.9-2.2 0.8-2.2-1.4v-6.1-6.5c0-1 0.1-1.6 1.4-1.5 3.4 0.3 6.7 0.6 9.9 1.6 0.4 0.1 1.3 0 1 1-2 4.9-4.3 9.6-9.2 12.4zm5.2-0.5c1-1.4 1.7-2.4 2.4-3.3 1.6-2.2 2.8-4.7 3.7-7.3 0.4-1.1 0.8-1.2 1.8-0.7 1.6 0.8 3.2 1.5 4.7 2.6-3.4 3.9-7.3 6.8-12.6 8.7zm19.2-24.2c-0.5 4.5-2 8.6-4.3 12.3-0.5 0.9-0.9 1.1-1.8 0.5-1.5-0.9-3-1.7-4.6-2.3-1-0.4-1.2-1-1-2 0.7-2.7 1.1-5.4 1.2-8.1 0-1 0.3-1.6 1.5-1.5 2.6 0.1 5.3 0 7.9 0 0.8 0 1.6-0.1 1.1 1.1zm-4.4-19.4c2.6 4.2 4.1 8.9 4.6 13.8 0.1 1.4-0.2 2-1.7 1.8-1.2-0.1-2.4 0-3.6 0v-0.1c-1.6 0-3.7 0.6-4.8-0.2s-0.4-3.1-0.6-4.7c-0.3-2.2-0.6-4.4-1.1-6.6-0.3-1.2 0-1.7 1-2.1 1.5-0.6 3-1.4 4.4-2.2 0.8-0.5 1.2-0.7 1.8 0.3z" fill="#7c7a92"/>
</svg>
