<?xml version="1.0" encoding="UTF-8"?>
<svg enable-background="new 0 0 100 100" version="1.1" viewBox="0 0 100 100" xml:space="preserve" xmlns="http://www.w3.org/2000/svg">
		<path d="m51 2.1c-11.4 0-21.8 4.1-29.8 11l-8.9-5.9c-0.5 9.3-1 18.3-1.5 27.7 8.3-4.3 16.3-8.4 24.6-12.6l-7.9-5.1c6.6-5 14.7-8 23.6-8 21.7 0 39.3 17.8 39.3 39.6v1.6l7.1 0.1v-1.8c-0.1-25.6-20.9-46.6-46.5-46.6zm22.4 80.3c-6.6 5-14.7 8-23.6 8-21.7 0-39.3-17.8-39.3-39.6v-1.6l-7-0.2v1.8c0 25.8 20.8 46.8 46.4 46.8 11.4 0 21.8-4.1 29.8-11l8.9 5.9c0.5-9.3 1-18.3 1.5-27.7-8.3 4.3-16.3 8.4-24.6 12.6l7.9 5zm-34.3-36.6c3.6 9.5 7.2 18.9 10.9 28.5 3.7-9.6 7.3-19 10.9-28.5h-21.8zm6.8 24v-0.5c-2.9-7.6-5.7-15.3-8.6-22.9-0.1-0.3-0.7-0.6-1-0.6-2.4-0.1-4.7 0-7.1 0h-1.7c6.2 8.1 12.2 16 18.4 24zm26.7-24h-8.6c-0.8 0-1.1 0.2-1.4 1-2.4 6.6-4.9 13.2-7.4 19.7-0.4 1-0.8 2.1-1.1 3.1 0.1 0 0.1 0.1 0.2 0.1 6-7.9 12.1-15.9 18.3-23.9zm-32.7-2.1h20.3c-3.5-3.8-6.8-7.3-10.1-11-3.4 3.7-6.7 7.3-10.2 11zm-12.4 0.1h8.9c0.2 0 0.6-0.4 0.7-0.7 0.9-3.9 1.7-7.9 2.5-11.8-0.1 0-0.1-0.1-0.2-0.1-3.9 4.1-7.8 8.2-11.9 12.6zm33-12.5c0.8 3.9 1.7 7.7 2.4 11.6 0.1 0.7 0.4 0.9 1.1 0.9h7.5c0.3 0 0.5-0.1 0.9-0.1-4-4.2-7.8-8.4-11.7-12.5-0.1 0-0.1 0-0.2 0.1zm-18.2-0.8c-0.3 0-0.7 0.3-0.8 0.6-0.7 3.4-1.4 6.8-2.2 10.4 3.5-3.7 6.8-7.3 10.3-11-2.6-0.1-4.9-0.1-7.3 0zm8.3 0c3.4 3.7 6.7 7.2 10.1 11-0.8-3.9-1.6-7.4-2.3-11h-7.8z" fill="#7c7a92"/>
</svg>
