<?xml version="1.0" encoding="UTF-8"?>
<svg enable-background="new 0 0 100 100" version="1.1" viewBox="0 0 100 100" xml:space="preserve" xmlns="http://www.w3.org/2000/svg">
		<path d="m32.2 10.4h7.4c2 0 4.1 0.2 6 0.8 1.7 0.5 3.2 1.3 4.3 2.8 0.4 0.5 0.6 1 1 1.5 0 0.1 0 0.1 0.1 0.2h-0.3-15.1c-0.2 0-0.4 0.1-0.5 0.3l-3 4.5c-0.1 0.1-0.1 0.2-0.2 0.3h19.8c-0.1 0.6-0.1 1.2-0.3 1.8-0.6 2.5-2.2 4.3-4.4 5.6-1.7 1-3.5 1.5-5.4 1.7-1.4 0.1-2.8 0.2-4.2 0.2h-3.5-0.3v0.3 4.1c0 0.2 0.1 0.4 0.2 0.5 4.8 6 9.6 12 14.3 17.9 1.6 2 3.3 4.1 4.9 6.1 0 0.1 0.1 0.1 0.1 0.2h8.7c0-0.1-0.1-0.2-0.1-0.2-6.6-8.2-13.1-16.4-19.7-24.6-0.1-0.1-0.1-0.2-0.3-0.3 0.4 0 0.8-0.1 1.1-0.1 3.4-0.3 6.6-1.3 9.5-3.2 3.2-2 5.4-4.8 6.3-8.5 0.1-0.4 0.2-0.8 0.2-1.2 0-0.2 0.1-0.3 0.3-0.3h5.7c0.1 0 0.3-0.1 0.3-0.1 1.1-1.6 2.1-3.2 3.2-4.8 0 0 0-0.1 0.1-0.1h-9.6c-0.3-1-0.6-1.9-1-2.8s-0.9-1.7-1.6-2.5h0.4 8.2c0.2 0 0.3-0.1 0.4-0.2 1-1.5 2.1-3.1 3.1-4.6 0-0.1 0.1-0.2 0.1-0.2h-33.2c0 0.1-0.1 0.2-0.1 0.3l-3 4.5c-0.1 0.1-0.1 0.2-0.2 0.3 0.1-0.2 0.2-0.2 0.3-0.2zm63.5 46.8c-2.2 0.4-4.4 1-6.4 1.9-6 2.7-11.4 6.5-16.8 10.3-1 0.7-1.4 1.3-1.2 2.6 0.4 2.6-1.1 4.9-4.1 6-2.4 0.9-4.9 1.7-7.4 1.8-6.4 0.3-12.8 0.3-19.3 0.3h-0.2c-0.3-0.3-1-0.7-0.9-1 0-0.4 0.5-0.9 0.9-1.2 0.3-0.2 0.9-0.1 1.3-0.1 5.9-0.1 11.8-0.1 17.7-0.3 2.7-0.1 5.5-0.7 7.9-2.1 1.8-1.1 2.3-2.4 1.8-4.4s-1.5-2.8-3.6-2.9c-1.6-0.1-3.2 0-4.7 0.1-5.8 0.4-11.6 0.2-17.2-1.5-10.2-3.1-20.5-3-30.8-0.7-0.8 0.2-1 0.5-1 1.3v15.1 4c0.4 0.1 0.7 0.1 1.1 0.2 9.3 1.4 18.7 2.6 27.6 5.8 3.6 1.4 7.6 1.9 11.6 1.2 5.1-0.9 9.6-3.2 13.7-6.3 7.5-5.7 14.9-11.3 22.3-17.1 3.5-2.7 6.8-5.6 10.2-8.4 0.4-0.3 0.7-1 0.8-1.5 0-2.3-1-3.5-3.3-3.1zm-88.8 2.6h-3.3c-1.5 0-2.3 0.8-2.3 2.2v28.5c0 1.4 0.9 2.2 2.3 2.3h3c1.9 0 2.6-0.8 2.6-2.7v-13.8-14.1c0.1-1.6-0.7-2.4-2.3-2.4z" fill="#7c7a92"/>
</svg>
